<svg width="19" height="15" viewBox="0 0 19 15" fill="none" xmlns="http://www.w3.org/2000/svg">
<path d="M0 3.05357C0 2.24371 0.321715 1.46703 0.89437 0.89437C1.46703 0.321715 2.24371 0 3.05357 0H15.9464C16.7563 0 17.533 0.321715 18.1056 0.89437C18.6783 1.46703 19 2.24371 19 3.05357V11.875C19 12.6849 18.6783 13.4615 18.1056 14.0342C17.533 14.6069 16.7563 14.9286 15.9464 14.9286H3.05357C2.24371 14.9286 1.46703 14.6069 0.89437 14.0342C0.321715 13.4615 0 12.6849 0 11.875V3.05357ZM3.05357 1.35714C2.60365 1.35714 2.17216 1.53587 1.85402 1.85402C1.53587 2.17216 1.35714 2.60365 1.35714 3.05357V4.07143H17.6429V3.05357C17.6429 2.60365 17.4641 2.17216 17.146 1.85402C16.8278 1.53587 16.3963 1.35714 15.9464 1.35714H3.05357ZM1.35714 11.875C1.35714 12.3249 1.53587 12.7564 1.85402 13.0746C2.17216 13.3927 2.60365 13.5714 3.05357 13.5714H15.9464C16.3963 13.5714 16.8278 13.3927 17.146 13.0746C17.4641 12.7564 17.6429 12.3249 17.6429 11.875V5.42857H1.35714V11.875ZM12.8929 9.5H14.9286C15.1085 9.5 15.2811 9.57149 15.4084 9.69875C15.5357 9.82601 15.6071 9.9986 15.6071 10.1786C15.6071 10.3585 15.5357 10.5311 15.4084 10.6584C15.2811 10.7857 15.1085 10.8571 14.9286 10.8571H12.8929C12.7129 10.8571 12.5403 10.7857 12.413 10.6584C12.2858 10.5311 12.2143 10.3585 12.2143 10.1786C12.2143 9.9986 12.2858 9.82601 12.413 9.69875C12.5403 9.57149 12.7129 9.5 12.8929 9.5Z" fill="#FFCE31"/>
</svg>
