<svg width="19" height="18" viewBox="0 0 19 18" fill="none" xmlns="http://www.w3.org/2000/svg">
<path d="M11.1965 14.5894C14.3952 14.5894 15.9949 14.5894 16.9882 13.5953C17.9823 12.602 17.9823 11.0023 17.9823 7.80364C17.9823 4.605 17.9823 3.00525 16.9882 2.01199C15.9949 1.01787 14.3952 1.01787 11.1965 1.01787H7.80364C4.605 1.01787 3.00525 1.01787 2.01198 2.01199C1.01787 3.00525 1.01787 4.605 1.01787 7.80364C1.01787 11.0023 1.01787 12.602 2.01198 13.5953C2.56587 14.15 3.30806 14.3952 4.41075 14.5029" stroke="#FFCE31" stroke-width="2" stroke-linecap="round" stroke-linejoin="round"/>
<path d="M9.49996 7.80364V7.81213M6.10707 7.80364V7.81213M12.8928 7.80364V7.81213M11.1964 14.5894C10.148 14.5894 8.99272 15.0135 7.93838 15.5606C6.24363 16.4402 5.39626 16.8805 4.97893 16.5997C4.56161 16.3198 4.64049 15.4504 4.79911 13.7124L4.83474 13.3171" stroke="#FFCE31" stroke-width="2" stroke-linecap="round"/>
</svg>
