<svg width="15" height="20" viewBox="0 0 15 20" fill="none" xmlns="http://www.w3.org/2000/svg">
<path d="M10.0315 16.05C10.0315 16.7661 9.76484 17.4529 9.29014 17.9592C8.81544 18.4656 8.1716 18.75 7.50028 18.75C6.82895 18.75 6.18511 18.4656 5.71041 17.9592C5.23571 17.4529 4.96902 16.7661 4.96902 16.05M8.10862 3.45274L6.87168 3.45004C4.05018 3.44284 1.60077 5.88814 1.58137 8.85003V12.261C1.58137 12.972 1.49699 13.6659 1.13334 14.2572L0.891181 14.6514C0.522462 15.249 0.919025 16.05 1.58137 16.05H13.4192C14.0815 16.05 14.4772 15.249 14.1094 14.6514L13.8672 14.2572C13.5044 13.6659 13.4192 12.9711 13.4192 12.2601V8.85093C13.3854 5.88814 10.9301 3.45994 8.10862 3.45274V3.45274Z" stroke="#FFCE31" stroke-width="1.5" stroke-linecap="round" stroke-linejoin="round"/>
<path d="M7.5003 0.749976C7.94785 0.749976 8.37707 0.939618 8.69354 1.27718C9.01001 1.61475 9.1878 2.07258 9.1878 2.54997V3.44997H5.8128V2.54997C5.8128 2.07258 5.99059 1.61475 6.30706 1.27718C6.62352 0.939618 7.05275 0.749976 7.5003 0.749976Z" stroke="#FFCE31" stroke-width="1.5" stroke-linecap="round" stroke-linejoin="round"/>
</svg>
