<svg width="7" height="13" viewBox="0 0 7 13" fill="none" xmlns="http://www.w3.org/2000/svg">
<path d="M0.642745 0C0.585872 0 0.531329 0.0237123 0.491113 0.0659205C0.450898 0.108129 0.428306 0.165375 0.428306 0.225067V0.296038H0.357398C0.26261 0.296038 0.171705 0.335558 0.104679 0.405905C0.0376543 0.476252 0 0.571663 0 0.671149C0 0.770634 0.0376543 0.866045 0.104679 0.936392C0.171705 1.00674 0.26261 1.04626 0.357398 1.04626H0.428306V8.47751C0.428294 8.51904 0.439233 8.55977 0.459912 8.59518C0.48059 8.6306 0.510201 8.65931 0.545468 8.67815C0.580734 8.69699 0.62028 8.70523 0.659729 8.70194C0.699177 8.69865 0.736988 8.68396 0.768978 8.65952L2.99771 6.95726V12.4748C2.99771 12.6141 3.05043 12.7477 3.14426 12.8462C3.2381 12.9447 3.36537 13 3.49807 13C3.63077 13 3.75804 12.9447 3.85188 12.8462C3.94571 12.7477 3.99843 12.6141 3.99843 12.4748V6.95726L6.22716 8.65952C6.25915 8.68396 6.29696 8.69865 6.33641 8.70194C6.37586 8.70523 6.41541 8.69699 6.45067 8.67815C6.48594 8.65931 6.51555 8.6306 6.53623 8.59518C6.55691 8.55977 6.56785 8.51904 6.56783 8.47751V1.04626H6.6426C6.68954 1.04626 6.73601 1.03656 6.77937 1.01771C6.82273 0.998855 6.86213 0.971225 6.89532 0.936392C6.92851 0.90156 6.95483 0.860208 6.9728 0.814698C6.99076 0.769187 7 0.720409 7 0.671149C7 0.571663 6.96235 0.476252 6.89532 0.405905C6.82829 0.335558 6.73739 0.296038 6.6426 0.296038H6.56783V0.225067C6.56783 0.165375 6.54524 0.108129 6.50503 0.0659205C6.46481 0.0237123 6.41027 0 6.3534 0H0.642745Z" fill="#B8B8B8"/>
</svg>
