<svg width="21" height="18" viewBox="0 0 21 18" fill="none" xmlns="http://www.w3.org/2000/svg">
<path d="M17.91 1.13625C17.685 0.4725 17.055 0 16.3125 0H3.9375C3.195 0 2.57625 0.4725 2.34 1.13625L0 7.875V16.875C0 17.4937 0.50625 18 1.125 18H2.25C2.86875 18 3.375 17.4937 3.375 16.875V15.75H16.875V16.875C16.875 17.4937 17.3813 18 18 18H19.125C19.7437 18 20.25 17.4937 20.25 16.875V7.875L17.91 1.13625ZM4.33125 2.25H15.9075L17.1225 5.74875H3.11625L4.33125 2.25ZM18 13.5H2.25V7.875H18V13.5Z" fill="#E4E4E4"/>
<path d="M5.0625 12.375C5.99448 12.375 6.75 11.6195 6.75 10.6875C6.75 9.75552 5.99448 9 5.0625 9C4.13052 9 3.375 9.75552 3.375 10.6875C3.375 11.6195 4.13052 12.375 5.0625 12.375Z" fill="#E4E4E4"/>
<path d="M15.1875 12.375C16.1195 12.375 16.875 11.6195 16.875 10.6875C16.875 9.75552 16.1195 9 15.1875 9C14.2555 9 13.5 9.75552 13.5 10.6875C13.5 11.6195 14.2555 12.375 15.1875 12.375Z" fill="#E4E4E4"/>
</svg>
