<svg width="275" height="138" viewBox="0 0 275 138" fill="none" xmlns="http://www.w3.org/2000/svg">
<rect x="232" width="43" height="61" rx="7" fill="#708285"/>
<path d="M253.86 45.7667C262.066 45.7667 268.719 39.1032 268.719 30.8834C268.719 22.6635 262.066 16 253.86 16C245.653 16 239 22.6635 239 30.8834C239 39.1032 245.653 45.7667 253.86 45.7667Z" fill="#B9B9BB"/>
<path d="M253.979 42.6193C260.384 42.6193 265.576 37.4188 265.576 31.0036C265.576 24.5885 260.384 19.3879 253.979 19.3879C247.574 19.3879 242.382 24.5885 242.382 31.0036C242.382 37.4188 247.574 42.6193 253.979 42.6193Z" fill="#1B3A46"/>
<path d="M249.134 35.2695C251.566 35.2695 253.537 33.295 253.537 30.8593C253.537 28.4235 251.566 26.449 249.134 26.449C246.702 26.449 244.73 28.4235 244.73 30.8593C244.73 33.295 246.702 35.2695 249.134 35.2695Z" fill="#B9B9BB"/>
<path d="M249.179 32.9979C250.363 32.9979 251.322 32.0369 251.322 30.8515C251.322 29.6661 250.363 28.7051 249.179 28.7051C247.996 28.7051 247.036 29.6661 247.036 30.8515C247.036 32.0369 247.996 32.9979 249.179 32.9979Z" fill="#1B3A46"/>
<path d="M258.719 35.2695C261.151 35.2695 263.122 33.295 263.122 30.8593C263.122 28.4235 261.151 26.449 258.719 26.449C256.287 26.449 254.315 28.4235 254.315 30.8593C254.315 33.295 256.287 35.2695 258.719 35.2695Z" fill="#B9B9BB"/>
<path d="M258.764 32.9979C259.948 32.9979 260.907 32.0369 260.907 30.8515C260.907 29.6661 259.948 28.7051 258.764 28.7051C257.581 28.7051 256.621 29.6661 256.621 30.8515C256.621 32.0369 257.581 32.9979 258.764 32.9979Z" fill="#1B3A46"/>
<path d="M251.66 22.207L255.794 26.3477" stroke="#BAB9BB" stroke-width="0.7" stroke-miterlimit="10"/>
<path d="M256.061 22.207L251.927 26.3477" stroke="#BAB9BB" stroke-width="0.7" stroke-miterlimit="10"/>
<path d="M251.66 35.8223L255.794 39.9629" stroke="#BAB9BB" stroke-width="0.7" stroke-miterlimit="10"/>
<path d="M256.061 35.8223L251.927 39.9629" stroke="#BAB9BB" stroke-width="0.7" stroke-miterlimit="10"/>
<rect x="174" width="43" height="61" rx="7" fill="#708285"/>
<path d="M207.728 25.0625C207.728 27.3871 205.847 29.2718 203.526 29.2718C201.205 29.2718 199.323 27.3871 199.323 25.0625C199.323 22.738 201.205 20.8533 203.526 20.8533C205.847 20.8533 207.728 22.738 207.728 25.0625Z" fill="#1B3A46"/>
<path d="M202.902 39.3061C203.405 39.3061 203.812 38.898 203.812 38.3945C203.812 37.891 203.405 37.4829 202.902 37.4829C202.4 37.4829 201.992 37.891 201.992 38.3945C201.992 38.898 202.4 39.3061 202.902 39.3061Z" fill="#1B3A46"/>
<path d="M208.199 30.6551C208.197 30.7121 208.195 30.769 208.19 30.8283C208.181 31.0015 208.167 31.1815 208.149 31.3684C208.138 31.4915 208.124 31.6168 208.108 31.7444C208.097 31.8402 208.083 31.9359 208.07 32.0362C208.054 32.1341 208.038 32.2344 208.022 32.3347C207.999 32.4669 207.974 32.6036 207.947 32.7381C207.933 32.8064 207.919 32.8748 207.903 32.9432C207.849 33.1984 207.783 33.4582 207.706 33.7203C207.685 33.7932 207.662 33.8662 207.64 33.9368C207.617 34.0097 207.594 34.0827 207.569 34.1556C207.444 34.5271 207.298 34.8986 207.125 35.2655C207.059 35.4045 206.991 35.5435 206.916 35.6825C206.841 35.8261 206.761 35.9697 206.675 36.111C206.554 36.3138 206.422 36.5166 206.283 36.7149C206.227 36.7924 206.17 36.8699 206.11 36.9473C206.06 37.0112 206.01 37.075 205.96 37.1388C205.958 37.1433 205.954 37.1456 205.951 37.1502C205.94 37.1639 205.928 37.1775 205.913 37.1912C205.619 37.4829 205.164 37.5353 204.807 37.3211C204.798 37.3165 204.791 37.3097 204.784 37.3052C204.77 37.296 204.757 37.2846 204.743 37.2778C204.593 37.1684 204.443 37.0613 204.288 36.9587C204.274 36.9496 204.263 36.9428 204.249 36.9337C204.165 36.8767 204.081 36.822 203.997 36.7696C203.913 36.7149 203.828 36.6625 203.742 36.6101C203.658 36.5554 203.571 36.5052 203.482 36.4551C203.396 36.4027 203.31 36.3525 203.221 36.3047C202.87 36.1064 202.511 35.9218 202.145 35.7532C201.969 35.6711 201.794 35.5936 201.617 35.5184C201.603 35.5116 201.587 35.507 201.571 35.5002C201.485 35.4637 201.396 35.4273 201.307 35.3931C200.93 35.2427 200.543 35.1082 200.151 34.9874C200.054 34.9555 199.956 34.9282 199.858 34.9008C199.664 34.8439 199.473 34.7937 199.278 34.7459C199.262 34.7413 199.246 34.739 199.23 34.7345C199.141 34.7117 199.05 34.6912 198.959 34.6707C198.757 34.6251 198.554 34.584 198.349 34.5476C198.17 34.5157 197.992 34.4861 197.812 34.461C197.127 34.3584 196.431 34.3037 195.721 34.2946V34.2923H195.562V34.2946C194.852 34.3037 194.156 34.3584 193.471 34.461C193.291 34.4861 193.114 34.5157 192.934 34.5476C192.729 34.584 192.527 34.6251 192.324 34.6707C192.233 34.6912 192.142 34.7117 192.053 34.7345C192.037 34.739 192.022 34.7413 192.006 34.7459C191.81 34.7937 191.619 34.8439 191.425 34.9008C191.328 34.9282 191.23 34.9555 191.132 34.9874C190.741 35.1082 190.354 35.2427 189.976 35.3931C189.887 35.4273 189.799 35.4637 189.712 35.5002C189.696 35.507 189.68 35.5116 189.667 35.5184C189.489 35.5936 189.314 35.6711 189.139 35.7532C188.772 35.9218 188.413 36.1064 188.062 36.3047C187.974 36.3525 187.887 36.4027 187.801 36.4551C187.712 36.5052 187.626 36.5554 187.541 36.6101C187.455 36.6625 187.371 36.7149 187.287 36.7696C187.202 36.822 187.118 36.8767 187.034 36.9337C187.02 36.9428 187.009 36.9496 186.995 36.9587C186.841 37.0613 186.69 37.1684 186.54 37.2778C186.527 37.2846 186.513 37.296 186.499 37.3052C186.492 37.3097 186.486 37.3165 186.477 37.3211C186.119 37.5353 185.664 37.4829 185.371 37.1912C185.355 37.1775 185.343 37.1639 185.332 37.1502C185.33 37.1456 185.325 37.1433 185.323 37.1388C185.273 37.075 185.223 37.0112 185.173 36.9473C185.114 36.8699 185.057 36.7924 185 36.7149C184.861 36.5166 184.729 36.3138 184.609 36.111C184.522 35.9697 184.442 35.8261 184.367 35.6825C184.292 35.5435 184.224 35.4045 184.158 35.2655C183.985 34.8986 183.839 34.5271 183.714 34.1556C183.689 34.0827 183.667 34.0097 183.644 33.9368C183.621 33.8662 183.598 33.7932 183.578 33.7203C183.5 33.4582 183.434 33.1984 183.38 32.9432C183.364 32.8748 183.35 32.8064 183.337 32.7381C183.309 32.6036 183.284 32.4669 183.262 32.3347C183.246 32.2344 183.23 32.1341 183.214 32.0362C183.2 31.9359 183.186 31.8402 183.175 31.7444C183.159 31.6168 183.145 31.4915 183.134 31.3684C183.116 31.1815 183.102 31.0015 183.093 30.8283C183.089 30.769 183.086 30.7121 183.084 30.6551C183.05 29.9099 183.876 29.4404 184.49 29.862C184.499 29.8688 184.508 29.8757 184.517 29.8802C184.565 29.9121 184.613 29.9441 184.661 29.9737C184.665 29.9782 184.67 29.9805 184.674 29.9828C184.722 30.0147 184.77 30.0443 184.82 30.0717C184.866 30.099 184.913 30.1264 184.961 30.1514C185.023 30.1879 185.086 30.2198 185.15 30.2517C185.216 30.2859 185.282 30.3178 185.348 30.3474C185.414 30.3793 185.482 30.409 185.55 30.4363C185.619 30.4637 185.687 30.491 185.755 30.5161C185.803 30.5343 185.849 30.5503 185.896 30.5662C186.279 30.6961 186.679 30.7896 187.093 30.8351C187.164 30.8442 187.237 30.8511 187.309 30.8556C187.678 30.8853 188.056 30.8784 188.44 30.8351C191.134 30.5252 193.282 28.3237 193.535 25.6185C193.553 25.4317 193.56 25.2471 193.56 25.0648C193.56 24.9303 193.555 24.7958 193.546 24.6637C193.544 24.6181 193.539 24.5748 193.535 24.5292C193.53 24.4791 193.526 24.4266 193.519 24.3765C193.478 24.0096 193.4 23.6541 193.289 23.3122C193.271 23.253 193.253 23.196 193.232 23.1413C193.15 22.8997 193.05 22.665 192.934 22.4417C192.904 22.3847 192.875 22.3277 192.845 22.273C192.816 22.2183 192.786 22.1636 192.752 22.1089C192.72 22.0542 192.686 22.0018 192.654 21.9494C192.62 21.8947 192.586 21.8423 192.549 21.7921C192.479 21.6873 192.404 21.587 192.326 21.4868C192.288 21.4389 192.249 21.3888 192.208 21.3409C192.09 21.1973 191.962 21.0583 191.828 20.9261C191.744 20.8441 191.655 20.762 191.567 20.6823C191.485 20.6116 191.403 20.541 191.316 20.4749C191.091 20.2994 191.198 19.9348 191.48 19.9006C191.803 19.8596 192.126 19.8254 192.447 19.7958C192.538 19.7866 192.627 19.7798 192.718 19.7707C192.923 19.7525 193.125 19.7365 193.328 19.7228C193.53 19.7092 193.733 19.6978 193.933 19.6864C194.131 19.675 194.329 19.6659 194.527 19.659C194.663 19.6522 194.802 19.6476 194.936 19.6453C195.036 19.6408 195.137 19.6385 195.237 19.6362H195.246C195.353 19.634 195.457 19.6317 195.562 19.6317C195.578 19.6294 195.592 19.6294 195.605 19.6294H195.678C195.692 19.6294 195.705 19.6294 195.721 19.6317C195.826 19.6317 195.931 19.634 196.038 19.6362H196.047C196.147 19.6385 196.247 19.6408 196.347 19.6453C196.481 19.6476 196.62 19.6522 196.757 19.659C196.955 19.6659 197.152 19.675 197.35 19.6864C197.551 19.6978 197.753 19.7092 197.956 19.7228C198.158 19.7365 198.361 19.7525 198.565 19.7707C198.656 19.7798 198.745 19.7866 198.836 19.7958C199.157 19.8254 199.48 19.8596 199.803 19.9006C200.085 19.9348 200.192 20.2994 199.967 20.4749C199.881 20.541 199.799 20.6116 199.717 20.6823C199.628 20.762 199.539 20.8441 199.455 20.9261C199.321 21.0583 199.193 21.1973 199.075 21.3409C199.034 21.3888 198.996 21.4389 198.957 21.4868C198.879 21.587 198.804 21.6873 198.734 21.7921C198.697 21.8423 198.663 21.8947 198.629 21.9494C198.597 22.0018 198.563 22.0542 198.531 22.1089C198.497 22.1636 198.468 22.2183 198.438 22.273C198.408 22.3277 198.379 22.3847 198.349 22.4417C198.233 22.665 198.133 22.8997 198.051 23.1413C198.031 23.196 198.013 23.253 197.994 23.3122C197.883 23.6541 197.806 24.0096 197.765 24.3765C197.758 24.4266 197.753 24.4791 197.749 24.5292C197.744 24.5748 197.74 24.6181 197.737 24.6637C197.728 24.7958 197.724 24.9303 197.724 25.0648C197.724 25.2471 197.73 25.4317 197.749 25.6185C198.001 28.3237 200.149 30.5252 202.843 30.8351C203.228 30.8784 203.605 30.8853 203.974 30.8556C204.047 30.8511 204.12 30.8442 204.19 30.8351C204.604 30.7896 205.005 30.6961 205.387 30.5662C205.435 30.5503 205.48 30.5343 205.528 30.5161C205.596 30.491 205.665 30.4637 205.733 30.4363C205.801 30.409 205.869 30.3793 205.935 30.3474C206.001 30.3178 206.067 30.2859 206.133 30.2517C206.197 30.2198 206.261 30.1879 206.322 30.1514C206.37 30.1264 206.418 30.099 206.463 30.0717C206.513 30.0443 206.561 30.0147 206.609 29.9828C206.613 29.9805 206.618 29.9782 206.622 29.9737C206.67 29.9441 206.718 29.9121 206.766 29.8802C206.775 29.8757 206.784 29.8688 206.793 29.862C207.407 29.4404 208.233 29.9099 208.199 30.6551Z" fill="#1B3A46"/>
<path d="M195.605 19.6294C195.591 19.6294 195.577 19.6294 195.562 19.6317V19.6294H195.605Z" fill="#1B3A46"/>
<path d="M195.721 34.2925V34.2948C195.694 34.2925 195.669 34.2925 195.642 34.2925H195.721Z" fill="#1B3A46"/>
<path d="M207.728 25.0625C207.728 27.3871 205.847 29.2718 203.526 29.2718C201.205 29.2718 199.323 27.3871 199.323 25.0625C199.323 22.738 201.205 20.8533 203.526 20.8533C205.847 20.8533 207.728 22.738 207.728 25.0625Z" fill="#BAB9BE"/>
<path d="M207.728 25.0625C207.728 27.3871 205.847 29.2718 203.526 29.2718C201.205 29.2718 199.323 27.3871 199.323 25.0625C199.323 22.738 201.205 20.8533 203.526 20.8533C205.847 20.8533 207.728 22.738 207.728 25.0625Z" fill="#1B3A46"/>
<path d="M203.526 26.7876C204.506 26.7876 205.301 25.9918 205.301 25.01C205.301 24.0283 204.506 23.2324 203.526 23.2324C202.546 23.2324 201.751 24.0283 201.751 25.01C201.751 25.9918 202.546 26.7876 203.526 26.7876Z" fill="#BAB9BE"/>
<path d="M202.902 39.3061C203.405 39.3061 203.812 38.898 203.812 38.3945C203.812 37.891 203.405 37.4829 202.902 37.4829C202.4 37.4829 201.992 37.891 201.992 38.3945C201.992 38.898 202.4 39.3061 202.902 39.3061Z" fill="#BAB9BE"/>
<path d="M197.334 37.7726C197.334 38.7001 196.624 39.4636 195.721 39.5433C195.698 39.5456 195.675 39.5456 195.652 39.5479H195.63C195.607 39.5456 195.584 39.5456 195.561 39.5433C194.658 39.4636 193.948 38.7001 193.948 37.7726C193.948 36.8473 194.658 36.0838 195.561 36.0041C195.584 36.0018 195.607 36.0018 195.63 35.9995H195.652C195.675 36.0018 195.698 36.0018 195.721 36.0041C196.624 36.0838 197.334 36.8473 197.334 37.7726Z" fill="#1B3A46"/>
<path d="M195.63 39.5478C195.607 39.5501 195.584 39.5501 195.562 39.5501V39.5432C195.584 39.5455 195.607 39.5455 195.63 39.5478Z" fill="#1B3A46"/>
<path d="M195.63 35.9994C195.607 36.0016 195.584 36.0016 195.562 36.0039V35.9971C195.584 35.9971 195.607 35.9971 195.63 35.9994Z" fill="#1B3A46"/>
<path d="M202.902 39.3061C203.405 39.3061 203.812 38.898 203.812 38.3945C203.812 37.891 203.405 37.4829 202.902 37.4829C202.4 37.4829 201.992 37.891 201.992 38.3945C201.992 38.898 202.4 39.3061 202.902 39.3061Z" fill="#1B3A46"/>
<path d="M187.757 29.2718C190.078 29.2718 191.96 27.3873 191.96 25.0625C191.96 22.7378 190.078 20.8533 187.757 20.8533C185.436 20.8533 183.555 22.7378 183.555 25.0625C183.555 27.3873 185.436 29.2718 187.757 29.2718Z" fill="#1B3A46"/>
<path d="M179.308 20.3929C179.342 20.3678 179.374 20.3451 179.408 20.3223H179.403C179.371 20.3451 179.339 20.3701 179.308 20.3929Z" fill="#1B3A46"/>
<path d="M208.889 22.8519C208.786 22.6263 208.675 22.4053 208.559 22.1865C208.534 22.1409 208.511 22.0976 208.486 22.052C208.479 22.0406 208.472 22.0292 208.466 22.0178C208.422 21.9495 208.379 21.8834 208.336 21.8173C208.179 21.5848 208.006 21.3638 207.819 21.1587C207.756 21.0903 207.694 21.0242 207.628 20.9581C207.521 20.851 207.41 20.7462 207.294 20.6505C207.26 20.6208 207.226 20.5912 207.189 20.5616C207.121 20.5023 207.048 20.4476 206.975 20.3929C206.941 20.3679 206.909 20.3451 206.875 20.3223H206.88C206.716 20.2038 206.548 20.0898 206.375 19.9827C205.46 19.4198 204.418 19.0233 203.433 18.7954C200.886 18.2917 198.306 18.0273 195.721 18.0023C195.694 18 195.669 18 195.642 18C195.615 18 195.589 18 195.562 18.0023C192.977 18.0273 190.397 18.2917 187.851 18.7954C186.866 19.0233 185.824 19.4198 184.909 19.9827C184.736 20.0898 184.568 20.2038 184.404 20.3223H184.408C184.374 20.3451 184.342 20.3679 184.308 20.3929C184.236 20.4476 184.163 20.5023 184.094 20.5616C184.058 20.5912 184.024 20.6208 183.99 20.6505C183.874 20.7462 183.762 20.851 183.655 20.9581C183.589 21.0242 183.528 21.0903 183.464 21.1587C183.278 21.3638 183.105 21.5848 182.948 21.8173C182.904 21.8834 182.861 21.9495 182.818 22.0178C182.811 22.0292 182.804 22.0406 182.798 22.052C182.772 22.0976 182.75 22.1409 182.725 22.1865C182.609 22.4053 182.497 22.6263 182.395 22.8519C181.48 24.8005 181 26.9495 181 29.1146C181 32.8453 182.379 36.2592 184.668 38.8618C187.203 41.7492 190.852 43.6385 194.973 43.8459C195.169 43.855 195.367 43.8618 195.562 43.8618C195.589 43.8641 195.615 43.8641 195.642 43.8641C195.669 43.8641 195.694 43.8641 195.721 43.8618C195.917 43.8618 196.115 43.855 196.311 43.8459C200.431 43.6385 204.081 41.7492 206.616 38.8618C208.905 36.2592 210.284 32.8453 210.284 29.1146C210.284 26.9495 209.804 24.8005 208.889 22.8519ZM203.526 20.8533C205.847 20.8533 207.728 22.738 207.728 25.0626C207.728 27.3871 205.847 29.2718 203.526 29.2718C201.205 29.2718 199.323 27.3871 199.323 25.0626C199.323 22.738 201.205 20.8533 203.526 20.8533ZM187.758 20.8533C190.079 20.8533 191.96 22.738 191.96 25.0626C191.96 27.3871 190.079 29.2718 187.758 29.2718C185.437 29.2718 183.555 27.3871 183.555 25.0626C183.555 22.738 185.437 20.8533 187.758 20.8533ZM188.381 39.3062C187.878 39.3062 187.471 38.8982 187.471 38.3946C187.471 37.8909 187.878 37.483 188.381 37.483C188.884 37.483 189.291 37.8909 189.291 38.3946C189.291 38.8982 188.884 39.3062 188.381 39.3062ZM195.721 39.5432V39.55C195.699 39.55 195.676 39.55 195.653 39.5477H195.63C195.608 39.55 195.585 39.55 195.562 39.55V39.5432C194.659 39.4634 193.949 38.7 193.949 37.7724C193.949 36.8472 194.659 36.0837 195.562 36.0039V35.9971C195.585 35.9971 195.608 35.9971 195.63 35.9994H195.653C195.676 35.9971 195.699 35.9971 195.721 35.9971V36.0039C196.625 36.0837 197.335 36.8472 197.335 37.7724C197.335 38.7 196.625 39.4634 195.721 39.5432ZM202.902 39.3062C202.4 39.3062 201.992 38.8982 201.992 38.3946C201.992 37.8909 202.4 37.483 202.902 37.483C203.405 37.483 203.813 37.8909 203.813 38.3946C203.813 38.8982 203.405 39.3062 202.902 39.3062ZM208.199 30.6552C208.197 30.7121 208.195 30.7691 208.19 30.8284C208.181 31.0016 208.168 31.1816 208.149 31.3685C208.138 31.4916 208.124 31.6169 208.108 31.7445C208.097 31.8402 208.083 31.936 208.07 32.0362C208.054 32.1342 208.038 32.2345 208.022 32.3348C207.999 32.467 207.974 32.6037 207.947 32.7382C207.933 32.8065 207.92 32.8749 207.904 32.9433C207.849 33.1985 207.783 33.4583 207.706 33.7204C207.685 33.7933 207.662 33.8662 207.64 33.9369C207.617 34.0098 207.594 34.0828 207.569 34.1557C207.444 34.5272 207.298 34.8986 207.125 35.2655C207.06 35.4046 206.991 35.5436 206.916 35.6826C206.841 35.8262 206.761 35.9697 206.675 36.111C206.554 36.3139 206.422 36.5167 206.284 36.715C206.227 36.7925 206.17 36.8699 206.111 36.9474C206.07 37.0044 206.027 37.0591 205.983 37.1138C205.976 37.1229 205.97 37.1297 205.96 37.1389C205.958 37.1434 205.954 37.1457 205.951 37.1503C205.94 37.1639 205.929 37.1776 205.913 37.1913C205.631 37.5035 205.157 37.5605 204.807 37.3212C204.798 37.3166 204.791 37.3098 204.784 37.3052C204.771 37.2961 204.757 37.2847 204.743 37.2779C204.593 37.1708 204.443 37.0637 204.288 36.9588C204.274 36.9497 204.263 36.9429 204.249 36.9338C204.165 36.8768 204.081 36.8221 203.997 36.7697C203.913 36.715 203.829 36.6626 203.742 36.6101C203.658 36.5554 203.571 36.5053 203.483 36.4552C203.396 36.4028 203.31 36.3526 203.221 36.3048C202.871 36.1065 202.511 35.9219 202.145 35.7532C201.97 35.6712 201.794 35.5937 201.617 35.5185C201.603 35.5117 201.587 35.5071 201.571 35.5003C201.485 35.4638 201.396 35.4273 201.307 35.3932C200.93 35.2428 200.543 35.1083 200.152 34.9875C200.054 34.9579 199.956 34.9283 199.858 34.9009C199.665 34.8439 199.473 34.7938 199.278 34.7459C199.262 34.7414 199.246 34.7391 199.23 34.7345C199.141 34.7118 199.05 34.6912 198.959 34.6707C198.757 34.6251 198.554 34.5841 198.349 34.5477C198.17 34.5158 197.992 34.4861 197.813 34.4611C197.128 34.3585 196.431 34.3038 195.721 34.2947C195.694 34.2924 195.669 34.2924 195.642 34.2924C195.615 34.2924 195.589 34.2924 195.562 34.2947C194.852 34.3038 194.156 34.3585 193.471 34.4611C193.291 34.4861 193.114 34.5158 192.934 34.5477C192.729 34.5841 192.527 34.6251 192.324 34.6707C192.233 34.6912 192.142 34.7118 192.054 34.7345C192.038 34.7391 192.022 34.7414 192.006 34.7459C191.81 34.7938 191.619 34.8439 191.426 34.9009C191.328 34.9283 191.23 34.9579 191.132 34.9875C190.741 35.1083 190.354 35.2428 189.976 35.3932C189.887 35.4273 189.799 35.4638 189.712 35.5003C189.696 35.5071 189.68 35.5117 189.667 35.5185C189.489 35.5937 189.314 35.6712 189.139 35.7532C188.773 35.9219 188.413 36.1065 188.063 36.3048C187.974 36.3526 187.887 36.4028 187.801 36.4552C187.712 36.5053 187.626 36.5554 187.542 36.6101C187.455 36.6626 187.371 36.715 187.287 36.7697C187.203 36.8221 187.118 36.8768 187.034 36.9338C187.021 36.9429 187.009 36.9497 186.996 36.9588C186.841 37.0637 186.691 37.1708 186.54 37.2779C186.527 37.2847 186.513 37.2961 186.5 37.3052C186.493 37.3098 186.486 37.3166 186.477 37.3212C186.126 37.5605 185.653 37.5035 185.371 37.1913C185.355 37.1776 185.344 37.1639 185.332 37.1503C185.33 37.1457 185.325 37.1434 185.323 37.1389C185.314 37.1297 185.307 37.1229 185.3 37.1138C185.257 37.0591 185.214 37.0044 185.173 36.9474C185.114 36.8699 185.057 36.7925 185 36.715C184.861 36.5167 184.729 36.3139 184.609 36.111C184.522 35.9697 184.443 35.8262 184.368 35.6826C184.292 35.5436 184.224 35.4046 184.158 35.2655C183.985 34.8986 183.84 34.5272 183.714 34.1557C183.689 34.0828 183.667 34.0098 183.644 33.9369C183.621 33.8662 183.598 33.7933 183.578 33.7204C183.501 33.4583 183.435 33.1985 183.38 32.9433C183.364 32.8749 183.35 32.8065 183.337 32.7382C183.309 32.6037 183.284 32.467 183.262 32.3348C183.246 32.2345 183.23 32.1342 183.214 32.0362C183.2 31.936 183.187 31.8402 183.175 31.7445C183.159 31.6169 183.146 31.4916 183.134 31.3685C183.116 31.1816 183.102 31.0016 183.093 30.8284C183.089 30.7691 183.086 30.7121 183.084 30.6552C183.082 30.6119 183.08 30.5708 183.077 30.5298C183.052 29.837 183.837 29.3972 184.402 29.8006C184.431 29.8211 184.461 29.8416 184.49 29.8621C184.499 29.8689 184.509 29.8758 184.518 29.8803C184.565 29.9122 184.613 29.9441 184.661 29.9738C184.666 29.9783 184.67 29.9806 184.675 29.9829C184.722 30.0148 184.77 30.0444 184.82 30.0717C184.866 30.0991 184.914 30.1264 184.961 30.1515C185.023 30.188 185.087 30.2199 185.15 30.2518C185.216 30.286 185.282 30.3179 185.348 30.3475C185.414 30.3794 185.482 30.409 185.551 30.4364C185.619 30.4637 185.687 30.4911 185.755 30.5161C185.803 30.5344 185.849 30.5503 185.897 30.5663C186.279 30.6962 186.679 30.7896 187.093 30.8352C187.164 30.8443 187.237 30.8512 187.31 30.8557C187.678 30.8853 188.056 30.8785 188.44 30.8352C191.134 30.5253 193.282 28.3238 193.535 25.6186C193.553 25.4317 193.56 25.2472 193.56 25.0648C193.56 24.9304 193.555 24.7959 193.546 24.6637C193.544 24.6182 193.539 24.5749 193.535 24.5293C193.53 24.4791 193.526 24.4267 193.519 24.3766C193.478 24.0097 193.401 23.6541 193.289 23.3123C193.271 23.253 193.253 23.1961 193.232 23.1414C193.15 22.8998 193.05 22.6651 192.934 22.4417C192.905 22.3848 192.875 22.3278 192.845 22.2731C192.816 22.2184 192.786 22.1637 192.752 22.109C192.72 22.0543 192.686 22.0019 192.654 21.9495C192.62 21.8948 192.586 21.8424 192.55 21.7922C192.479 21.6874 192.404 21.5871 192.327 21.4868C192.288 21.439 192.249 21.3888 192.208 21.341C192.09 21.1974 191.963 21.0584 191.828 20.9262C191.744 20.8442 191.655 20.7621 191.567 20.6824C191.485 20.6117 191.403 20.5411 191.316 20.475C191.314 20.4727 191.312 20.4727 191.31 20.4704C191.084 20.2972 191.175 19.9394 191.455 19.9029C191.464 19.9029 191.471 19.9007 191.48 19.9007C191.803 19.8596 192.126 19.8255 192.447 19.7958C192.538 19.7867 192.627 19.7799 192.718 19.7708C192.923 19.7525 193.125 19.7366 193.328 19.7229C193.53 19.7092 193.733 19.6956 193.933 19.6864C194.131 19.675 194.329 19.6659 194.527 19.6591C194.663 19.6523 194.802 19.6477 194.936 19.6454C195.037 19.6409 195.137 19.6386 195.237 19.6363H195.246C195.353 19.634 195.458 19.6317 195.562 19.6317V19.6295H195.721V19.6317C195.826 19.6317 195.931 19.634 196.038 19.6363H196.047C196.147 19.6386 196.247 19.6409 196.347 19.6454C196.481 19.6477 196.62 19.6523 196.757 19.6591C196.955 19.6659 197.153 19.675 197.351 19.6864C197.551 19.6956 197.753 19.7092 197.956 19.7229C198.158 19.7366 198.361 19.7525 198.566 19.7708C198.657 19.7799 198.745 19.7867 198.836 19.7958C199.157 19.8255 199.48 19.8596 199.803 19.9007C199.813 19.9007 199.819 19.9029 199.828 19.9029C200.111 19.9371 200.199 20.2972 199.974 20.4704C199.972 20.4727 199.97 20.4727 199.967 20.475C199.881 20.5411 199.799 20.6117 199.717 20.6824C199.628 20.7621 199.539 20.8442 199.455 20.9262C199.321 21.0584 199.194 21.1974 199.075 21.341C199.034 21.3888 198.996 21.439 198.957 21.4868C198.88 21.5871 198.805 21.6874 198.734 21.7922C198.698 21.8424 198.663 21.8948 198.629 21.9495C198.597 22.0019 198.563 22.0543 198.532 22.109C198.497 22.1637 198.468 22.2184 198.438 22.2731C198.409 22.3278 198.379 22.3848 198.349 22.4417C198.233 22.6651 198.133 22.8998 198.051 23.1414C198.031 23.1961 198.013 23.253 197.995 23.3123C197.883 23.6541 197.806 24.0097 197.765 24.3766C197.758 24.4267 197.753 24.4791 197.749 24.5293C197.744 24.5749 197.74 24.6182 197.737 24.6637C197.728 24.7959 197.724 24.9304 197.724 25.0648C197.724 25.2472 197.731 25.4317 197.749 25.6186C198.001 28.3238 200.149 30.5253 202.843 30.8352C203.228 30.8785 203.606 30.8853 203.974 30.8557C204.047 30.8512 204.12 30.8443 204.19 30.8352C204.604 30.7896 205.005 30.6962 205.387 30.5663C205.435 30.5503 205.48 30.5344 205.528 30.5161C205.596 30.4911 205.665 30.4637 205.733 30.4364C205.801 30.409 205.869 30.3794 205.935 30.3475C206.001 30.3179 206.067 30.286 206.133 30.2518C206.197 30.2199 206.261 30.188 206.322 30.1515C206.37 30.1264 206.418 30.0991 206.463 30.0717C206.513 30.0444 206.561 30.0148 206.609 29.9829C206.614 29.9806 206.618 29.9783 206.623 29.9738C206.67 29.9441 206.718 29.9122 206.766 29.8803C206.775 29.8758 206.784 29.8689 206.793 29.8621C206.823 29.8416 206.852 29.8211 206.882 29.8006C207.446 29.3972 208.231 29.837 208.206 30.5298C208.204 30.5708 208.202 30.6119 208.199 30.6552Z" fill="#BAB9BE"/>
<path d="M183.381 39.3061C183.883 39.3061 184.291 38.898 184.291 38.3945C184.291 37.891 183.883 37.4829 183.381 37.4829C182.878 37.4829 182.471 37.891 182.471 38.3945C182.471 38.898 182.878 39.3061 183.381 39.3061Z" fill="#1B3A46"/>
<path d="M181.476 37.3213C181.126 37.5606 180.652 37.5036 180.37 37.1914C180.664 37.4831 181.119 37.5355 181.476 37.3213Z" fill="#1B3A46"/>
<path d="M195.641 34.2925C195.614 34.2925 195.589 34.2925 195.562 34.2948V34.2925H195.641Z" fill="#1B3A46"/>
<path d="M195.721 19.6294V19.6317C195.705 19.6294 195.691 19.6294 195.678 19.6294H195.721Z" fill="#1B3A46"/>
<path d="M187.757 29.2718C190.078 29.2718 191.96 27.3873 191.96 25.0625C191.96 22.7378 190.078 20.8533 187.757 20.8533C185.436 20.8533 183.555 22.7378 183.555 25.0625C183.555 27.3873 185.436 29.2718 187.757 29.2718Z" fill="#BAB9BE"/>
<path d="M187.757 29.2718C190.078 29.2718 191.96 27.3873 191.96 25.0625C191.96 22.7378 190.078 20.8533 187.757 20.8533C185.436 20.8533 183.555 22.7378 183.555 25.0625C183.555 27.3873 185.436 29.2718 187.757 29.2718Z" fill="#1B3A46"/>
<path d="M187.757 26.7876C188.737 26.7876 189.532 25.9918 189.532 25.01C189.532 24.0283 188.737 23.2324 187.757 23.2324C186.777 23.2324 185.982 24.0283 185.982 25.01C185.982 25.9918 186.777 26.7876 187.757 26.7876Z" fill="#BAB9BE"/>
<path d="M183.381 39.3061C183.883 39.3061 184.291 38.898 184.291 38.3945C184.291 37.891 183.883 37.4829 183.381 37.4829C182.878 37.4829 182.471 37.891 182.471 38.3945C182.471 38.898 182.878 39.3061 183.381 39.3061Z" fill="#BAB9BE"/>
<path d="M195.721 35.9971V36.0039C195.698 36.0016 195.675 36.0016 195.652 35.9994C195.675 35.9971 195.698 35.9971 195.721 35.9971Z" fill="#1B3A46"/>
<path d="M195.721 39.5432V39.5501C195.698 39.5501 195.675 39.5501 195.652 39.5478C195.675 39.5455 195.698 39.5455 195.721 39.5432Z" fill="#1B3A46"/>
<path d="M183.381 39.3061C183.883 39.3061 184.291 38.898 184.291 38.3945C184.291 37.891 183.883 37.4829 183.381 37.4829C182.878 37.4829 182.471 37.891 182.471 38.3945C182.471 38.898 182.878 39.3061 183.381 39.3061Z" fill="#1B3A46"/>
<rect x="116" width="43" height="61" rx="7" fill="#708285"/>
<path d="M138.074 46.0075C146.951 46.0075 154.147 38.8424 154.147 30.0038C154.147 21.1651 146.951 14 138.074 14C129.196 14 122 21.1651 122 30.0038C122 38.8424 129.196 46.0075 138.074 46.0075Z" fill="#B9B8B6"/>
<path d="M152.75 29.9879C152.75 38.0037 146.225 44.5006 138.174 44.5006C130.123 44.5006 123.598 38.0037 123.598 29.9879C123.598 24.8647 126.265 20.3598 130.293 17.7773H146.057C150.082 20.3598 152.75 24.8647 152.75 29.9879Z" fill="#1B3A46"/>
<path d="M131.085 34.9361C133.676 34.9361 135.777 32.8444 135.777 30.2642C135.777 27.684 133.676 25.5923 131.085 25.5923C128.493 25.5923 126.393 27.684 126.393 30.2642C126.393 32.8444 128.493 34.9361 131.085 34.9361Z" fill="#B9B9BB"/>
<path d="M131.086 33.1985C132.69 33.1985 133.991 31.9035 133.991 30.3059C133.991 28.7084 132.69 27.4133 131.086 27.4133C129.481 27.4133 128.181 28.7084 128.181 30.3059C128.181 31.9035 129.481 33.1985 131.086 33.1985Z" fill="#1B3A46"/>
<path d="M145.263 34.9361C147.854 34.9361 149.955 32.8444 149.955 30.2642C149.955 27.684 147.854 25.5923 145.263 25.5923C142.671 25.5923 140.57 27.684 140.57 30.2642C140.57 32.8444 142.671 34.9361 145.263 34.9361Z" fill="#B9B9BB"/>
<path d="M145.262 33.1985C146.866 33.1985 148.167 31.9035 148.167 30.3059C148.167 28.7084 146.866 27.4133 145.262 27.4133C143.657 27.4133 142.356 28.7084 142.356 30.3059C142.356 31.9035 143.657 33.1985 145.262 33.1985Z" fill="#1B3A46"/>
<path d="M133.406 24.2841C134.33 24.2841 135.079 23.5382 135.079 22.6181C135.079 21.698 134.33 20.9521 133.406 20.9521C132.482 20.9521 131.732 21.698 131.732 22.6181C131.732 23.5382 132.482 24.2841 133.406 24.2841Z" fill="#B9B9BB"/>
<path d="M133.423 23.5268C133.927 23.5268 134.336 23.12 134.336 22.6183C134.336 22.1165 133.927 21.7097 133.423 21.7097C132.919 21.7097 132.511 22.1165 132.511 22.6183C132.511 23.12 132.919 23.5268 133.423 23.5268Z" fill="#1B3A46"/>
<path d="M138.247 24.2841C139.172 24.2841 139.921 23.5382 139.921 22.6181C139.921 21.698 139.172 20.9521 138.247 20.9521C137.323 20.9521 136.574 21.698 136.574 22.6181C136.574 23.5382 137.323 24.2841 138.247 24.2841Z" fill="#B9B9BB"/>
<path d="M138.265 23.5268C138.769 23.5268 139.178 23.12 139.178 22.6183C139.178 22.1165 138.769 21.7097 138.265 21.7097C137.761 21.7097 137.353 22.1165 137.353 22.6183C137.353 23.12 137.761 23.5268 138.265 23.5268Z" fill="#1B3A46"/>
<path d="M138.247 28.3835C139.172 28.3835 139.921 27.6376 139.921 26.7175C139.921 25.7974 139.172 25.0515 138.247 25.0515C137.323 25.0515 136.574 25.7974 136.574 26.7175C136.574 27.6376 137.323 28.3835 138.247 28.3835Z" fill="#B9B9BB"/>
<path d="M138.265 27.6242C138.769 27.6242 139.178 27.2174 139.178 26.7157C139.178 26.2139 138.769 25.8071 138.265 25.8071C137.761 25.8071 137.353 26.2139 137.353 26.7157C137.353 27.2174 137.761 27.6242 138.265 27.6242Z" fill="#1B3A46"/>
<path d="M143.09 24.2841C144.014 24.2841 144.764 23.5382 144.764 22.6181C144.764 21.698 144.014 20.9521 143.09 20.9521C142.166 20.9521 141.417 21.698 141.417 22.6181C141.417 23.5382 142.166 24.2841 143.09 24.2841Z" fill="#B9B9BB"/>
<path d="M143.11 23.5268C143.614 23.5268 144.022 23.12 144.022 22.6183C144.022 22.1165 143.614 21.7097 143.11 21.7097C142.606 21.7097 142.197 22.1165 142.197 22.6183C142.197 23.12 142.606 23.5268 143.11 23.5268Z" fill="#1B3A46"/>
<path d="M133.406 39.5922C134.33 39.5922 135.079 38.8463 135.079 37.9262C135.079 37.0061 134.33 36.2603 133.406 36.2603C132.482 36.2603 131.732 37.0061 131.732 37.9262C131.732 38.8463 132.482 39.5922 133.406 39.5922Z" fill="#B9B9BB"/>
<path d="M133.423 38.8347C133.927 38.8347 134.336 38.4279 134.336 37.9261C134.336 37.4243 133.927 37.0176 133.423 37.0176C132.919 37.0176 132.511 37.4243 132.511 37.9261C132.511 38.4279 132.919 38.8347 133.423 38.8347Z" fill="#1B3A46"/>
<path d="M143.09 39.5922C144.014 39.5922 144.764 38.8463 144.764 37.9262C144.764 37.0061 144.014 36.2603 143.09 36.2603C142.166 36.2603 141.417 37.0061 141.417 37.9262C141.417 38.8463 142.166 39.5922 143.09 39.5922Z" fill="#B9B9BB"/>
<path d="M143.11 38.8347C143.614 38.8347 144.022 38.4279 144.022 37.9261C144.022 37.4243 143.614 37.0176 143.11 37.0176C142.606 37.0176 142.197 37.4243 142.197 37.9261C142.197 38.4279 142.606 38.8347 143.11 38.8347Z" fill="#1B3A46"/>
<path d="M138.174 41.2363C139.607 41.2363 140.77 40.0792 140.77 38.6518C140.77 37.2245 139.607 36.0674 138.174 36.0674C136.74 36.0674 135.578 37.2245 135.578 38.6518C135.578 40.0792 136.74 41.2363 138.174 41.2363Z" fill="#B9B9BB"/>
<path d="M138.173 40.6397C139.276 40.6397 140.17 39.7496 140.17 38.6516C140.17 37.5537 139.276 36.6636 138.173 36.6636C137.071 36.6636 136.177 37.5537 136.177 38.6516C136.177 39.7496 137.071 40.6397 138.173 40.6397Z" fill="#1B3A46"/>
<rect x="58" width="43" height="61" rx="7" fill="#708285"/>
<path d="M79.1077 32.9293C85.705 32.9293 91.0532 27.5725 91.0532 20.9646C91.0532 14.3568 85.705 9 79.1077 9C72.5103 9 67.1621 14.3568 67.1621 20.9646C67.1621 27.5725 72.5103 32.9293 79.1077 32.9293Z" fill="#B9B9BB"/>
<path d="M79.2052 30.4019C84.3549 30.4019 88.5296 26.2206 88.5296 21.0626C88.5296 15.9047 84.3549 11.7234 79.2052 11.7234C74.0555 11.7234 69.8809 15.9047 69.8809 21.0626C69.8809 26.2206 74.0555 30.4019 79.2052 30.4019Z" fill="#1B3A46"/>
<path d="M85.3234 25.5362C86.1277 25.5362 86.7796 24.8832 86.7796 24.0777C86.7796 23.2722 86.1277 22.6191 85.3234 22.6191C84.5192 22.6191 83.8672 23.2722 83.8672 24.0777C83.8672 24.8832 84.5192 25.5362 85.3234 25.5362Z" fill="#B9B9BB"/>
<path d="M85.3331 24.7272C85.6686 24.7272 85.9406 24.4548 85.9406 24.1187C85.9406 23.7827 85.6686 23.5103 85.3331 23.5103C84.9976 23.5103 84.7256 23.7827 84.7256 24.1187C84.7256 24.4548 84.9976 24.7272 85.3331 24.7272Z" fill="#1B3A46"/>
<path d="M73.0871 25.5362C73.8913 25.5362 74.5433 24.8832 74.5433 24.0777C74.5433 23.2722 73.8913 22.6191 73.0871 22.6191C72.2828 22.6191 71.6309 23.2722 71.6309 24.0777C71.6309 24.8832 72.2828 25.5362 73.0871 25.5362Z" fill="#B9B9BB"/>
<path d="M73.0958 24.7272C73.4313 24.7272 73.7033 24.4548 73.7033 24.1187C73.7033 23.7827 73.4313 23.5103 73.0958 23.5103C72.7603 23.5103 72.4883 23.7827 72.4883 24.1187C72.4883 24.4548 72.7603 24.7272 73.0958 24.7272Z" fill="#1B3A46"/>
<path d="M74.834 20.2833C76.1749 20.2833 77.2618 19.1946 77.2618 17.8516C77.2618 16.5086 76.1749 15.4199 74.834 15.4199C73.4932 15.4199 72.4062 16.5086 72.4062 17.8516C72.4062 19.1946 73.4932 20.2833 74.834 20.2833Z" fill="#B9B9BB"/>
<path d="M74.8345 18.8475C75.3999 18.8475 75.8584 18.3883 75.8584 17.8219C75.8584 17.2555 75.3999 16.7964 74.8345 16.7964C74.269 16.7964 73.8105 17.2555 73.8105 17.8219C73.8105 18.3883 74.269 18.8475 74.8345 18.8475Z" fill="#1B3A46"/>
<path d="M83.7696 20.2833C85.1104 20.2833 86.1974 19.1946 86.1974 17.8516C86.1974 16.5086 85.1104 15.4199 83.7696 15.4199C82.4288 15.4199 81.3418 16.5086 81.3418 17.8516C81.3418 19.1946 82.4288 20.2833 83.7696 20.2833Z" fill="#B9B9BB"/>
<path d="M83.7671 18.8475C84.3326 18.8475 84.791 18.3883 84.791 17.8219C84.791 17.2555 84.3326 16.7964 83.7671 16.7964C83.2016 16.7964 82.7432 17.2555 82.7432 17.8219C82.7432 18.3883 83.2016 18.8475 83.7671 18.8475Z" fill="#1B3A46"/>
<path d="M79.1075 29.0391C80.4483 29.0391 81.5353 27.9504 81.5353 26.6075C81.5353 25.2645 80.4483 24.1758 79.1075 24.1758C77.7666 24.1758 76.6797 25.2645 76.6797 26.6075C76.6797 27.9504 77.7666 29.0391 79.1075 29.0391Z" fill="#B9B9BB"/>
<path d="M79.1079 27.6011C79.6734 27.6011 80.1318 27.142 80.1318 26.5756C80.1318 26.0092 79.6734 25.55 79.1079 25.55C78.5424 25.55 78.084 26.0092 78.084 26.5756C78.084 27.142 78.5424 27.6011 79.1079 27.6011Z" fill="#1B3A46"/>
<path d="M72.9637 51.8449C68.5723 51.8449 65 48.2669 65 43.8685C65 39.4701 68.5723 35.8921 72.9637 35.8921H85.023C89.4144 35.8921 92.9867 39.4701 92.9867 43.8685C92.9867 48.2669 89.4144 51.8449 85.023 51.8449H72.9637Z" fill="#B9B9BB"/>
<path d="M85.023 50.2496H72.9637C69.4461 50.2496 66.5928 47.3917 66.5928 43.8684C66.5928 40.3451 69.4461 37.4873 72.9637 37.4873H85.023C88.5407 37.4873 91.394 40.3451 91.394 43.8684C91.394 47.3917 88.5407 50.2496 85.023 50.2496Z" fill="#1B3A46"/>
<path d="M72.9638 48.611C75.6027 48.611 77.742 46.4683 77.742 43.8252C77.742 41.182 75.6027 39.0393 72.9638 39.0393C70.3248 39.0393 68.1855 41.182 68.1855 43.8252C68.1855 46.4683 70.3248 48.611 72.9638 48.611Z" fill="#B9B9BB"/>
<path d="M72.9622 45.7849C74.0756 45.7849 74.9782 44.8809 74.9782 43.7658C74.9782 42.6506 74.0756 41.7466 72.9622 41.7466C71.8489 41.7466 70.9463 42.6506 70.9463 43.7658C70.9463 44.8809 71.8489 45.7849 72.9622 45.7849Z" fill="#1B3A46"/>
<path d="M85.0233 48.611C87.6623 48.611 89.8016 46.4683 89.8016 43.8252C89.8016 41.182 87.6623 39.0393 85.0233 39.0393C82.3844 39.0393 80.2451 41.182 80.2451 43.8252C80.2451 46.4683 82.3844 48.611 85.0233 48.611Z" fill="#B9B9BB"/>
<path d="M85.0208 45.7849C86.1342 45.7849 87.0368 44.8809 87.0368 43.7658C87.0368 42.6506 86.1342 41.7466 85.0208 41.7466C83.9075 41.7466 83.0049 42.6506 83.0049 43.7658C83.0049 44.8809 83.9075 45.7849 85.0208 45.7849Z" fill="#1B3A46"/>
<rect x="1" y="1" width="41" height="59" rx="6" fill="#708285" stroke="#708285" stroke-width="2"/>
<path d="M10.4567 14.1619L10.4566 14.1622C9.53293 15.8934 9.0291 17.8559 9.00118 19.8297L10.4567 14.1619ZM10.4567 14.1619C11.1674 12.8289 12.5504 12 14.072 12H28.9255C30.4466 12 31.8272 12.8263 32.5348 14.1501L32.5349 14.1502M10.4567 14.1619L32.5349 14.1502M32.5349 14.1502C33.4905 15.9372 33.9962 17.9609 33.9962 20.0003C33.9962 26.6397 28.7905 32.1078 22.1398 32.444C21.925 32.4541 21.7117 32.4599 21.5052 32.4599C18.152 32.4599 14.9969 31.1373 12.6127 28.726M32.5349 14.1502L12.6127 28.726M12.6127 28.726C10.235 26.3212 8.95558 23.1649 9.00118 19.8301L12.6127 28.726Z" fill="#133C43" stroke="#B9B9BB" stroke-width="2"/>
<path d="M32.4154 20.0003C32.4154 25.8269 27.8274 30.582 22.0575 30.8735C15.802 31.1885 10.4963 26.0948 10.5801 19.8503C10.6037 18.0631 11.0614 16.3788 11.8501 14.898C12.2863 14.0794 13.1416 13.5715 14.0699 13.5715H28.9234C29.8474 13.5715 30.7027 14.0751 31.1389 14.8894C31.9534 16.413 32.4154 18.1531 32.4154 20.0003Z" fill="#1B3A46"/>
<path d="M14.495 22.9638C16.0094 22.9638 17.237 21.7396 17.237 20.2295C17.237 18.7193 16.0094 17.4951 14.495 17.4951C12.9806 17.4951 11.7529 18.7193 11.7529 20.2295C11.7529 21.7396 12.9806 22.9638 14.495 22.9638Z" fill="#B9B9BB"/>
<path d="M14.493 21.3502C15.1316 21.3502 15.6492 20.834 15.6492 20.1973C15.6492 19.5606 15.1316 19.0444 14.493 19.0444C13.8545 19.0444 13.3369 19.5606 13.3369 20.1973C13.3369 20.834 13.8545 21.3502 14.493 21.3502Z" fill="#1B3A46"/>
<path d="M17.9527 17.6173C18.7728 17.6173 19.4376 16.9543 19.4376 16.1365C19.4376 15.3187 18.7728 14.6558 17.9527 14.6558C17.1326 14.6558 16.4678 15.3187 16.4678 16.1365C16.4678 16.9543 17.1326 17.6173 17.9527 17.6173Z" fill="#B9B9BB"/>
<path d="M17.9693 16.9444C18.4168 16.9444 18.7795 16.5827 18.7795 16.1365C18.7795 15.6903 18.4168 15.3286 17.9693 15.3286C17.5219 15.3286 17.1592 15.6903 17.1592 16.1365C17.1592 16.5827 17.5219 16.9444 17.9693 16.9444Z" fill="#1B3A46"/>
<path d="M25.1587 17.6173C25.9788 17.6173 26.6437 16.9543 26.6437 16.1365C26.6437 15.3187 25.9788 14.6558 25.1587 14.6558C24.3387 14.6558 23.6738 15.3187 23.6738 16.1365C23.6738 16.9543 24.3387 17.6173 25.1587 17.6173Z" fill="#B9B9BB"/>
<path d="M25.1754 16.9444C25.6228 16.9444 25.9855 16.5827 25.9855 16.1365C25.9855 15.6903 25.6228 15.3286 25.1754 15.3286C24.7279 15.3286 24.3652 15.6903 24.3652 16.1365C24.3652 16.5827 24.7279 16.9444 25.1754 16.9444Z" fill="#1B3A46"/>
<path d="M18.0233 28.4411C19.5377 28.4411 20.7653 27.2169 20.7653 25.7068C20.7653 24.1966 19.5377 22.9724 18.0233 22.9724C16.5089 22.9724 15.2812 24.1966 15.2812 25.7068C15.2812 27.2169 16.5089 28.4411 18.0233 28.4411Z" fill="#B9B9BB"/>
<path d="M18.0243 26.8253C18.6628 26.8253 19.1804 26.3091 19.1804 25.6724C19.1804 25.0357 18.6628 24.5195 18.0243 24.5195C17.3858 24.5195 16.8682 25.0357 16.8682 25.6724C16.8682 26.3091 17.3858 26.8253 18.0243 26.8253Z" fill="#1B3A46"/>
<path d="M25.0848 28.4411C26.5992 28.4411 27.8269 27.2169 27.8269 25.7068C27.8269 24.1966 26.5992 22.9724 25.0848 22.9724C23.5704 22.9724 22.3428 24.1966 22.3428 25.7068C22.3428 27.2169 23.5704 28.4411 25.0848 28.4411Z" fill="#B9B9BB"/>
<path d="M25.0858 26.8253C25.7243 26.8253 26.2419 26.3091 26.2419 25.6724C26.2419 25.0357 25.7243 24.5195 25.0858 24.5195C24.4473 24.5195 23.9297 25.0357 23.9297 25.6724C23.9297 26.3091 24.4473 26.8253 25.0858 26.8253Z" fill="#1B3A46"/>
<path d="M21.5545 22.9638C23.0689 22.9638 24.2966 21.7396 24.2966 20.2295C24.2966 18.7193 23.0689 17.4951 21.5545 17.4951C20.0402 17.4951 18.8125 18.7193 18.8125 20.2295C18.8125 21.7396 20.0402 22.9638 21.5545 22.9638Z" fill="#B9B9BB"/>
<path d="M21.5546 21.3502C22.1931 21.3502 22.7107 20.834 22.7107 20.1973C22.7107 19.5606 22.1931 19.0444 21.5546 19.0444C20.9161 19.0444 20.3984 19.5606 20.3984 20.1973C20.3984 20.834 20.9161 21.3502 21.5546 21.3502Z" fill="#1B3A46"/>
<path d="M28.6151 22.9638C30.1295 22.9638 31.3571 21.7396 31.3571 20.2295C31.3571 18.7193 30.1295 17.4951 28.6151 17.4951C27.1007 17.4951 25.873 18.7193 25.873 20.2295C25.873 21.7396 27.1007 22.9638 28.6151 22.9638Z" fill="#B9B9BB"/>
<path d="M28.6161 21.3502C29.2546 21.3502 29.7722 20.834 29.7722 20.1973C29.7722 19.5606 29.2546 19.0444 28.6161 19.0444C27.9776 19.0444 27.46 19.5606 27.46 20.1973C27.46 20.834 27.9776 21.3502 28.6161 21.3502Z" fill="#1B3A46"/>
<path d="M15.7781 50.4604C12.1803 50.4604 9.25684 47.5411 9.25684 43.9602C9.25684 40.3793 12.1803 37.46 15.7781 37.46H27.1675C30.7653 37.46 33.6887 40.3793 33.6887 43.9602C33.6887 47.5411 30.7653 50.4604 27.1675 50.4604H15.7781Z" fill="#133C43" stroke="#B9B9BB" stroke-width="2"/>
<path d="M27.1671 49.9606H15.7778C12.4555 49.9606 9.76074 47.2733 9.76074 43.9604C9.76074 40.6474 12.4555 37.9602 15.7778 37.9602H27.1671C30.4894 37.9602 33.1841 40.6474 33.1841 43.9604C33.1841 47.2733 30.4894 49.9606 27.1671 49.9606Z" fill="#1B3A46"/>
<path d="M15.7774 48.4197C18.2697 48.4197 20.2902 46.4049 20.2902 43.9196C20.2902 41.4342 18.2697 39.4194 15.7774 39.4194C13.2851 39.4194 11.2646 41.4342 11.2646 43.9196C11.2646 46.4049 13.2851 48.4197 15.7774 48.4197Z" fill="#B9B9BB"/>
<path d="M15.776 45.7626C16.8275 45.7626 17.68 44.9125 17.68 43.864C17.68 42.8154 16.8275 41.9653 15.776 41.9653C14.7245 41.9653 13.8721 42.8154 13.8721 43.864C13.8721 44.9125 14.7245 45.7626 15.776 45.7626Z" fill="#1B3A46"/>
<path d="M27.1671 48.4197C29.6594 48.4197 31.6798 46.4049 31.6798 43.9196C31.6798 41.4342 29.6594 39.4194 27.1671 39.4194C24.6747 39.4194 22.6543 41.4342 22.6543 43.9196C22.6543 46.4049 24.6747 48.4197 27.1671 48.4197Z" fill="#B9B9BB"/>
<path d="M27.1647 45.7626C28.2162 45.7626 29.0686 44.9125 29.0686 43.864C29.0686 42.8154 28.2162 41.9653 27.1647 41.9653C26.1132 41.9653 25.2607 42.8154 25.2607 43.864C25.2607 44.9125 26.1132 45.7626 27.1647 45.7626Z" fill="#1B3A46"/>
<rect x="206" y="77" width="43" height="61" rx="7" fill="#708285"/>
<path d="M239.728 102.063C239.728 104.387 237.847 106.272 235.526 106.272C233.205 106.272 231.323 104.387 231.323 102.063C231.323 99.7382 233.205 97.8535 235.526 97.8535C237.847 97.8535 239.728 99.7382 239.728 102.063Z" fill="#1B3A46"/>
<path d="M234.902 116.307C235.405 116.307 235.812 115.898 235.812 115.395C235.812 114.892 235.405 114.483 234.902 114.483C234.4 114.483 233.992 114.892 233.992 115.395C233.992 115.898 234.4 116.307 234.902 116.307Z" fill="#1B3A46"/>
<path d="M240.199 107.656C240.197 107.713 240.195 107.77 240.19 107.829C240.181 108.002 240.167 108.182 240.149 108.369C240.138 108.492 240.124 108.617 240.108 108.745C240.097 108.841 240.083 108.936 240.07 109.037C240.054 109.135 240.038 109.235 240.022 109.335C239.999 109.467 239.974 109.604 239.947 109.739C239.933 109.807 239.919 109.875 239.903 109.944C239.849 110.199 239.783 110.459 239.706 110.721C239.685 110.794 239.662 110.867 239.64 110.937C239.617 111.01 239.594 111.083 239.569 111.156C239.444 111.528 239.298 111.899 239.125 112.266C239.059 112.405 238.991 112.544 238.916 112.683C238.841 112.827 238.761 112.97 238.675 113.111C238.554 113.314 238.422 113.517 238.283 113.715C238.227 113.793 238.17 113.87 238.11 113.948C238.06 114.012 238.01 114.075 237.96 114.139C237.958 114.144 237.954 114.146 237.951 114.151C237.94 114.164 237.928 114.178 237.913 114.192C237.619 114.483 237.164 114.536 236.807 114.322C236.798 114.317 236.791 114.31 236.784 114.306C236.77 114.297 236.757 114.285 236.743 114.278C236.593 114.169 236.443 114.062 236.288 113.959C236.274 113.95 236.263 113.943 236.249 113.934C236.165 113.877 236.081 113.822 235.997 113.77C235.913 113.715 235.828 113.663 235.742 113.611C235.658 113.556 235.571 113.506 235.482 113.456C235.396 113.403 235.31 113.353 235.221 113.305C234.87 113.107 234.511 112.922 234.145 112.754C233.969 112.672 233.794 112.594 233.617 112.519C233.603 112.512 233.587 112.508 233.571 112.501C233.485 112.464 233.396 112.428 233.307 112.394C232.93 112.243 232.543 112.109 232.151 111.988C232.054 111.956 231.956 111.929 231.858 111.901C231.664 111.844 231.473 111.794 231.278 111.746C231.262 111.742 231.246 111.74 231.23 111.735C231.141 111.712 231.05 111.692 230.959 111.671C230.757 111.626 230.554 111.585 230.349 111.548C230.17 111.516 229.992 111.487 229.812 111.461C229.127 111.359 228.431 111.304 227.721 111.295V111.293H227.562V111.295C226.852 111.304 226.156 111.359 225.471 111.461C225.291 111.487 225.114 111.516 224.934 111.548C224.729 111.585 224.527 111.626 224.324 111.671C224.233 111.692 224.142 111.712 224.053 111.735C224.037 111.74 224.022 111.742 224.006 111.746C223.81 111.794 223.619 111.844 223.425 111.901C223.328 111.929 223.23 111.956 223.132 111.988C222.741 112.109 222.354 112.243 221.976 112.394C221.887 112.428 221.799 112.464 221.712 112.501C221.696 112.508 221.68 112.512 221.667 112.519C221.489 112.594 221.314 112.672 221.139 112.754C220.772 112.922 220.413 113.107 220.062 113.305C219.974 113.353 219.887 113.403 219.801 113.456C219.712 113.506 219.626 113.556 219.541 113.611C219.455 113.663 219.371 113.715 219.287 113.77C219.202 113.822 219.118 113.877 219.034 113.934C219.02 113.943 219.009 113.95 218.995 113.959C218.841 114.062 218.69 114.169 218.54 114.278C218.527 114.285 218.513 114.297 218.499 114.306C218.492 114.31 218.486 114.317 218.477 114.322C218.119 114.536 217.664 114.483 217.371 114.192C217.355 114.178 217.343 114.164 217.332 114.151C217.33 114.146 217.325 114.144 217.323 114.139C217.273 114.075 217.223 114.012 217.173 113.948C217.114 113.87 217.057 113.793 217 113.715C216.861 113.517 216.729 113.314 216.609 113.111C216.522 112.97 216.442 112.827 216.367 112.683C216.292 112.544 216.224 112.405 216.158 112.266C215.985 111.899 215.839 111.528 215.714 111.156C215.689 111.083 215.667 111.01 215.644 110.937C215.621 110.867 215.598 110.794 215.578 110.721C215.5 110.459 215.434 110.199 215.38 109.944C215.364 109.875 215.35 109.807 215.337 109.739C215.309 109.604 215.284 109.467 215.262 109.335C215.246 109.235 215.23 109.135 215.214 109.037C215.2 108.936 215.186 108.841 215.175 108.745C215.159 108.617 215.145 108.492 215.134 108.369C215.116 108.182 215.102 108.002 215.093 107.829C215.089 107.77 215.086 107.713 215.084 107.656C215.05 106.91 215.876 106.441 216.49 106.862C216.499 106.869 216.508 106.876 216.517 106.881C216.565 106.913 216.613 106.945 216.661 106.974C216.665 106.979 216.67 106.981 216.674 106.983C216.722 107.015 216.77 107.045 216.82 107.072C216.866 107.1 216.913 107.127 216.961 107.152C217.023 107.188 217.086 107.22 217.15 107.252C217.216 107.286 217.282 107.318 217.348 107.348C217.414 107.38 217.482 107.409 217.55 107.437C217.619 107.464 217.687 107.491 217.755 107.517C217.803 107.535 217.849 107.551 217.896 107.567C218.279 107.697 218.679 107.79 219.093 107.836C219.164 107.845 219.237 107.852 219.309 107.856C219.678 107.886 220.056 107.879 220.44 107.836C223.134 107.526 225.282 105.324 225.535 102.619C225.553 102.432 225.56 102.248 225.56 102.065C225.56 101.931 225.555 101.796 225.546 101.664C225.544 101.619 225.539 101.575 225.535 101.53C225.53 101.48 225.526 101.427 225.519 101.377C225.478 101.01 225.4 100.655 225.289 100.313C225.271 100.253 225.253 100.196 225.232 100.142C225.15 99.9002 225.05 99.6655 224.934 99.4421C224.904 99.3852 224.875 99.3282 224.845 99.2735C224.816 99.2188 224.786 99.1641 224.752 99.1094C224.72 99.0547 224.686 99.0023 224.654 98.9499C224.62 98.8952 224.586 98.8428 224.549 98.7926C224.479 98.6878 224.404 98.5875 224.326 98.4872C224.288 98.4394 224.249 98.3893 224.208 98.3414C224.09 98.1978 223.962 98.0588 223.828 97.9266C223.744 97.8446 223.655 97.7625 223.567 97.6828C223.485 97.6121 223.403 97.5415 223.316 97.4754C223.091 97.2999 223.198 96.9353 223.48 96.9011C223.803 96.8601 224.126 96.8259 224.447 96.7962C224.538 96.7871 224.627 96.7803 224.718 96.7712C224.923 96.7529 225.125 96.737 225.328 96.7233C225.53 96.7096 225.733 96.6983 225.933 96.6869C226.131 96.6755 226.329 96.6663 226.527 96.6595C226.663 96.6527 226.802 96.6481 226.936 96.6458C227.036 96.6413 227.137 96.639 227.237 96.6367H227.246C227.353 96.6344 227.457 96.6322 227.562 96.6322C227.578 96.6299 227.592 96.6299 227.605 96.6299H227.678C227.692 96.6299 227.705 96.6299 227.721 96.6322C227.826 96.6322 227.931 96.6344 228.038 96.6367H228.047C228.147 96.639 228.247 96.6413 228.347 96.6458C228.481 96.6481 228.62 96.6527 228.757 96.6595C228.955 96.6663 229.152 96.6755 229.35 96.6869C229.551 96.6983 229.753 96.7096 229.956 96.7233C230.158 96.737 230.361 96.7529 230.565 96.7712C230.656 96.7803 230.745 96.7871 230.836 96.7962C231.157 96.8259 231.48 96.8601 231.803 96.9011C232.085 96.9353 232.192 97.2999 231.967 97.4754C231.881 97.5415 231.799 97.6121 231.717 97.6828C231.628 97.7625 231.539 97.8446 231.455 97.9266C231.321 98.0588 231.193 98.1978 231.075 98.3414C231.034 98.3893 230.996 98.4394 230.957 98.4872C230.879 98.5875 230.804 98.6878 230.734 98.7926C230.697 98.8428 230.663 98.8952 230.629 98.9499C230.597 99.0023 230.563 99.0547 230.531 99.1094C230.497 99.1641 230.468 99.2188 230.438 99.2735C230.408 99.3282 230.379 99.3852 230.349 99.4421C230.233 99.6655 230.133 99.9002 230.051 100.142C230.031 100.196 230.013 100.253 229.994 100.313C229.883 100.655 229.806 101.01 229.765 101.377C229.758 101.427 229.753 101.48 229.749 101.53C229.744 101.575 229.74 101.619 229.737 101.664C229.728 101.796 229.724 101.931 229.724 102.065C229.724 102.248 229.73 102.432 229.749 102.619C230.001 105.324 232.149 107.526 234.843 107.836C235.228 107.879 235.605 107.886 235.974 107.856C236.047 107.852 236.12 107.845 236.19 107.836C236.604 107.79 237.005 107.697 237.387 107.567C237.435 107.551 237.48 107.535 237.528 107.517C237.596 107.491 237.665 107.464 237.733 107.437C237.801 107.409 237.869 107.38 237.935 107.348C238.001 107.318 238.067 107.286 238.133 107.252C238.197 107.22 238.261 107.188 238.322 107.152C238.37 107.127 238.418 107.1 238.463 107.072C238.513 107.045 238.561 107.015 238.609 106.983C238.613 106.981 238.618 106.979 238.622 106.974C238.67 106.945 238.718 106.913 238.766 106.881C238.775 106.876 238.784 106.869 238.793 106.862C239.407 106.441 240.233 106.91 240.199 107.656Z" fill="#1B3A46"/>
<path d="M239.728 102.063C239.728 104.387 237.847 106.272 235.526 106.272C233.205 106.272 231.323 104.387 231.323 102.063C231.323 99.7382 233.205 97.8535 235.526 97.8535C237.847 97.8535 239.728 99.7382 239.728 102.063Z" fill="#BAB9BE"/>
<path d="M239.728 102.063C239.728 104.387 237.847 106.272 235.526 106.272C233.205 106.272 231.323 104.387 231.323 102.063C231.323 99.7382 233.205 97.8535 235.526 97.8535C237.847 97.8535 239.728 99.7382 239.728 102.063Z" fill="#1B3A46"/>
<path d="M235.526 103.788C236.506 103.788 237.301 102.992 237.301 102.01C237.301 101.028 236.506 100.232 235.526 100.232C234.546 100.232 233.751 101.028 233.751 102.01C233.751 102.992 234.546 103.788 235.526 103.788Z" fill="#BAB9BE"/>
<path d="M234.902 116.307C235.405 116.307 235.812 115.898 235.812 115.395C235.812 114.892 235.405 114.483 234.902 114.483C234.4 114.483 233.992 114.892 233.992 115.395C233.992 115.898 234.4 116.307 234.902 116.307Z" fill="#BAB9BE"/>
<path d="M229.334 114.772C229.334 115.7 228.624 116.463 227.721 116.543C227.698 116.545 227.675 116.545 227.652 116.547H227.63C227.607 116.545 227.584 116.545 227.561 116.543C226.658 116.463 225.948 115.7 225.948 114.772C225.948 113.847 226.658 113.083 227.561 113.004C227.584 113.001 227.607 113.001 227.63 112.999H227.652C227.675 113.001 227.698 113.001 227.721 113.004C228.624 113.083 229.334 113.847 229.334 114.772Z" fill="#1B3A46"/>
<path d="M234.902 116.307C235.405 116.307 235.812 115.898 235.812 115.395C235.812 114.892 235.405 114.483 234.902 114.483C234.4 114.483 233.992 114.892 233.992 115.395C233.992 115.898 234.4 116.307 234.902 116.307Z" fill="#1B3A46"/>
<path d="M219.757 106.272C222.078 106.272 223.96 104.388 223.96 102.063C223.96 99.7381 222.078 97.8535 219.757 97.8535C217.436 97.8535 215.555 99.7381 215.555 102.063C215.555 104.388 217.436 106.272 219.757 106.272Z" fill="#1B3A46"/>
<path d="M240.889 99.8519C240.786 99.6263 240.675 99.4053 240.559 99.1865C240.534 99.1409 240.511 99.0976 240.486 99.052C240.479 99.0406 240.472 99.0292 240.466 99.0178C240.422 98.9495 240.379 98.8834 240.336 98.8173C240.179 98.5848 240.006 98.3638 239.819 98.1587C239.756 98.0903 239.694 98.0242 239.628 97.9581C239.521 97.851 239.41 97.7462 239.294 97.6505C239.26 97.6208 239.226 97.5912 239.189 97.5616C239.121 97.5023 239.048 97.4476 238.975 97.3929C238.941 97.3679 238.909 97.3451 238.875 97.3223H238.88C238.716 97.2038 238.548 97.0898 238.375 96.9827C237.46 96.4198 236.418 96.0233 235.433 95.7954C232.886 95.2917 230.306 95.0273 227.721 95.0023C227.694 95 227.669 95 227.642 95C227.615 95 227.589 95 227.562 95.0023C224.977 95.0273 222.397 95.2917 219.851 95.7954C218.866 96.0233 217.824 96.4198 216.909 96.9827C216.736 97.0898 216.568 97.2038 216.404 97.3223H216.408C216.374 97.3451 216.342 97.3679 216.308 97.3929C216.236 97.4476 216.163 97.5023 216.094 97.5616C216.058 97.5912 216.024 97.6208 215.99 97.6505C215.874 97.7462 215.762 97.851 215.655 97.9581C215.589 98.0242 215.528 98.0903 215.464 98.1587C215.278 98.3638 215.105 98.5848 214.948 98.8173C214.904 98.8834 214.861 98.9495 214.818 99.0178C214.811 99.0292 214.804 99.0406 214.798 99.052C214.772 99.0976 214.75 99.1409 214.725 99.1865C214.609 99.4053 214.497 99.6263 214.395 99.8519C213.48 101.8 213 103.95 213 106.115C213 109.845 214.379 113.259 216.668 115.862C219.203 118.749 222.852 120.639 226.973 120.846C227.169 120.855 227.367 120.862 227.562 120.862C227.589 120.864 227.615 120.864 227.642 120.864C227.669 120.864 227.694 120.864 227.721 120.862C227.917 120.862 228.115 120.855 228.311 120.846C232.431 120.639 236.081 118.749 238.616 115.862C240.905 113.259 242.284 109.845 242.284 106.115C242.284 103.95 241.804 101.8 240.889 99.8519ZM235.526 97.8533C237.847 97.8533 239.728 99.738 239.728 102.063C239.728 104.387 237.847 106.272 235.526 106.272C233.205 106.272 231.323 104.387 231.323 102.063C231.323 99.738 233.205 97.8533 235.526 97.8533ZM219.758 97.8533C222.079 97.8533 223.96 99.738 223.96 102.063C223.96 104.387 222.079 106.272 219.758 106.272C217.437 106.272 215.555 104.387 215.555 102.063C215.555 99.738 217.437 97.8533 219.758 97.8533ZM220.381 116.306C219.878 116.306 219.471 115.898 219.471 115.395C219.471 114.891 219.878 114.483 220.381 114.483C220.884 114.483 221.291 114.891 221.291 115.395C221.291 115.898 220.884 116.306 220.381 116.306ZM227.721 116.543V116.55C227.699 116.55 227.676 116.55 227.653 116.548H227.63C227.608 116.55 227.585 116.55 227.562 116.55V116.543C226.659 116.463 225.949 115.7 225.949 114.772C225.949 113.847 226.659 113.084 227.562 113.004V112.997C227.585 112.997 227.608 112.997 227.63 112.999H227.653C227.676 112.997 227.699 112.997 227.721 112.997V113.004C228.625 113.084 229.335 113.847 229.335 114.772C229.335 115.7 228.625 116.463 227.721 116.543ZM234.902 116.306C234.4 116.306 233.992 115.898 233.992 115.395C233.992 114.891 234.4 114.483 234.902 114.483C235.405 114.483 235.813 114.891 235.813 115.395C235.813 115.898 235.405 116.306 234.902 116.306ZM240.199 107.655C240.197 107.712 240.195 107.769 240.19 107.828C240.181 108.002 240.168 108.182 240.149 108.368C240.138 108.492 240.124 108.617 240.108 108.745C240.097 108.84 240.083 108.936 240.07 109.036C240.054 109.134 240.038 109.234 240.022 109.335C239.999 109.467 239.974 109.604 239.947 109.738C239.933 109.807 239.92 109.875 239.904 109.943C239.849 110.199 239.783 110.458 239.706 110.72C239.685 110.793 239.662 110.866 239.64 110.937C239.617 111.01 239.594 111.083 239.569 111.156C239.444 111.527 239.298 111.899 239.125 112.266C239.06 112.405 238.991 112.544 238.916 112.683C238.841 112.826 238.761 112.97 238.675 113.111C238.554 113.314 238.422 113.517 238.284 113.715C238.227 113.792 238.17 113.87 238.111 113.947C238.07 114.004 238.027 114.059 237.983 114.114C237.976 114.123 237.97 114.13 237.96 114.139C237.958 114.143 237.954 114.146 237.951 114.15C237.94 114.164 237.929 114.178 237.913 114.191C237.631 114.503 237.157 114.56 236.807 114.321C236.798 114.317 236.791 114.31 236.784 114.305C236.771 114.296 236.757 114.285 236.743 114.278C236.593 114.171 236.443 114.064 236.288 113.959C236.274 113.95 236.263 113.943 236.249 113.934C236.165 113.877 236.081 113.822 235.997 113.77C235.913 113.715 235.829 113.663 235.742 113.61C235.658 113.555 235.571 113.505 235.483 113.455C235.396 113.403 235.31 113.353 235.221 113.305C234.871 113.106 234.511 112.922 234.145 112.753C233.97 112.671 233.794 112.594 233.617 112.519C233.603 112.512 233.587 112.507 233.571 112.5C233.485 112.464 233.396 112.427 233.307 112.393C232.93 112.243 232.543 112.108 232.152 111.988C232.054 111.958 231.956 111.928 231.858 111.901C231.665 111.844 231.473 111.794 231.278 111.746C231.262 111.741 231.246 111.739 231.23 111.735C231.141 111.712 231.05 111.691 230.959 111.671C230.757 111.625 230.554 111.584 230.349 111.548C230.17 111.516 229.992 111.486 229.813 111.461C229.128 111.359 228.431 111.304 227.721 111.295C227.694 111.292 227.669 111.292 227.642 111.292C227.615 111.292 227.589 111.292 227.562 111.295C226.852 111.304 226.156 111.359 225.471 111.461C225.291 111.486 225.114 111.516 224.934 111.548C224.729 111.584 224.527 111.625 224.324 111.671C224.233 111.691 224.142 111.712 224.054 111.735C224.038 111.739 224.022 111.741 224.006 111.746C223.81 111.794 223.619 111.844 223.426 111.901C223.328 111.928 223.23 111.958 223.132 111.988C222.741 112.108 222.354 112.243 221.976 112.393C221.887 112.427 221.799 112.464 221.712 112.5C221.696 112.507 221.68 112.512 221.667 112.519C221.489 112.594 221.314 112.671 221.139 112.753C220.773 112.922 220.413 113.106 220.063 113.305C219.974 113.353 219.887 113.403 219.801 113.455C219.712 113.505 219.626 113.555 219.542 113.61C219.455 113.663 219.371 113.715 219.287 113.77C219.203 113.822 219.118 113.877 219.034 113.934C219.021 113.943 219.009 113.95 218.996 113.959C218.841 114.064 218.691 114.171 218.54 114.278C218.527 114.285 218.513 114.296 218.5 114.305C218.493 114.31 218.486 114.317 218.477 114.321C218.126 114.56 217.653 114.503 217.371 114.191C217.355 114.178 217.344 114.164 217.332 114.15C217.33 114.146 217.325 114.143 217.323 114.139C217.314 114.13 217.307 114.123 217.3 114.114C217.257 114.059 217.214 114.004 217.173 113.947C217.114 113.87 217.057 113.792 217 113.715C216.861 113.517 216.729 113.314 216.609 113.111C216.522 112.97 216.443 112.826 216.368 112.683C216.292 112.544 216.224 112.405 216.158 112.266C215.985 111.899 215.84 111.527 215.714 111.156C215.689 111.083 215.667 111.01 215.644 110.937C215.621 110.866 215.598 110.793 215.578 110.72C215.501 110.458 215.435 110.199 215.38 109.943C215.364 109.875 215.35 109.807 215.337 109.738C215.309 109.604 215.284 109.467 215.262 109.335C215.246 109.234 215.23 109.134 215.214 109.036C215.2 108.936 215.187 108.84 215.175 108.745C215.159 108.617 215.146 108.492 215.134 108.368C215.116 108.182 215.102 108.002 215.093 107.828C215.089 107.769 215.086 107.712 215.084 107.655C215.082 107.612 215.08 107.571 215.077 107.53C215.052 106.837 215.837 106.397 216.402 106.801C216.431 106.821 216.461 106.842 216.49 106.862C216.499 106.869 216.509 106.876 216.518 106.88C216.565 106.912 216.613 106.944 216.661 106.974C216.666 106.978 216.67 106.981 216.675 106.983C216.722 107.015 216.77 107.044 216.82 107.072C216.866 107.099 216.914 107.126 216.961 107.152C217.023 107.188 217.087 107.22 217.15 107.252C217.216 107.286 217.282 107.318 217.348 107.348C217.414 107.379 217.482 107.409 217.551 107.436C217.619 107.464 217.687 107.491 217.755 107.516C217.803 107.534 217.849 107.55 217.897 107.566C218.279 107.696 218.679 107.79 219.093 107.835C219.164 107.844 219.237 107.851 219.31 107.856C219.678 107.885 220.056 107.879 220.44 107.835C223.134 107.525 225.282 105.324 225.535 102.619C225.553 102.432 225.56 102.247 225.56 102.065C225.56 101.93 225.555 101.796 225.546 101.664C225.544 101.618 225.539 101.575 225.535 101.529C225.53 101.479 225.526 101.427 225.519 101.377C225.478 101.01 225.401 100.654 225.289 100.312C225.271 100.253 225.253 100.196 225.232 100.141C225.15 99.8998 225.05 99.6651 224.934 99.4417C224.905 99.3848 224.875 99.3278 224.845 99.2731C224.816 99.2184 224.786 99.1637 224.752 99.109C224.72 99.0543 224.686 99.0019 224.654 98.9495C224.62 98.8948 224.586 98.8424 224.55 98.7922C224.479 98.6874 224.404 98.5871 224.327 98.4868C224.288 98.439 224.249 98.3888 224.208 98.341C224.09 98.1974 223.963 98.0584 223.828 97.9262C223.744 97.8442 223.655 97.7621 223.567 97.6824C223.485 97.6117 223.403 97.5411 223.316 97.475C223.314 97.4727 223.312 97.4727 223.31 97.4704C223.084 97.2972 223.175 96.9394 223.455 96.9029C223.464 96.9029 223.471 96.9007 223.48 96.9007C223.803 96.8596 224.126 96.8255 224.447 96.7958C224.538 96.7867 224.627 96.7799 224.718 96.7708C224.923 96.7525 225.125 96.7366 225.328 96.7229C225.53 96.7092 225.733 96.6956 225.933 96.6864C226.131 96.675 226.329 96.6659 226.527 96.6591C226.663 96.6523 226.802 96.6477 226.936 96.6454C227.037 96.6409 227.137 96.6386 227.237 96.6363H227.246C227.353 96.634 227.458 96.6317 227.562 96.6317V96.6295H227.721V96.6317C227.826 96.6317 227.931 96.634 228.038 96.6363H228.047C228.147 96.6386 228.247 96.6409 228.347 96.6454C228.481 96.6477 228.62 96.6523 228.757 96.6591C228.955 96.6659 229.153 96.675 229.351 96.6864C229.551 96.6956 229.753 96.7092 229.956 96.7229C230.158 96.7366 230.361 96.7525 230.566 96.7708C230.657 96.7799 230.745 96.7867 230.836 96.7958C231.157 96.8255 231.48 96.8596 231.803 96.9007C231.813 96.9007 231.819 96.9029 231.828 96.9029C232.111 96.9371 232.199 97.2972 231.974 97.4704C231.972 97.4727 231.97 97.4727 231.967 97.475C231.881 97.5411 231.799 97.6117 231.717 97.6824C231.628 97.7621 231.539 97.8442 231.455 97.9262C231.321 98.0584 231.194 98.1974 231.075 98.341C231.034 98.3888 230.996 98.439 230.957 98.4868C230.88 98.5871 230.805 98.6874 230.734 98.7922C230.698 98.8424 230.663 98.8948 230.629 98.9495C230.597 99.0019 230.563 99.0543 230.532 99.109C230.497 99.1637 230.468 99.2184 230.438 99.2731C230.409 99.3278 230.379 99.3848 230.349 99.4417C230.233 99.6651 230.133 99.8998 230.051 100.141C230.031 100.196 230.013 100.253 229.995 100.312C229.883 100.654 229.806 101.01 229.765 101.377C229.758 101.427 229.753 101.479 229.749 101.529C229.744 101.575 229.74 101.618 229.737 101.664C229.728 101.796 229.724 101.93 229.724 102.065C229.724 102.247 229.731 102.432 229.749 102.619C230.001 105.324 232.149 107.525 234.843 107.835C235.228 107.879 235.606 107.885 235.974 107.856C236.047 107.851 236.12 107.844 236.19 107.835C236.604 107.79 237.005 107.696 237.387 107.566C237.435 107.55 237.48 107.534 237.528 107.516C237.596 107.491 237.665 107.464 237.733 107.436C237.801 107.409 237.869 107.379 237.935 107.348C238.001 107.318 238.067 107.286 238.133 107.252C238.197 107.22 238.261 107.188 238.322 107.152C238.37 107.126 238.418 107.099 238.463 107.072C238.513 107.044 238.561 107.015 238.609 106.983C238.614 106.981 238.618 106.978 238.623 106.974C238.67 106.944 238.718 106.912 238.766 106.88C238.775 106.876 238.784 106.869 238.793 106.862C238.823 106.842 238.852 106.821 238.882 106.801C239.446 106.397 240.231 106.837 240.206 107.53C240.204 107.571 240.202 107.612 240.199 107.655Z" fill="#BAB9BE"/>
<path d="M215.381 116.307C215.883 116.307 216.291 115.898 216.291 115.395C216.291 114.892 215.883 114.483 215.381 114.483C214.878 114.483 214.471 114.892 214.471 115.395C214.471 115.898 214.878 116.307 215.381 116.307Z" fill="#1B3A46"/>
<path d="M219.757 106.272C222.078 106.272 223.96 104.388 223.96 102.063C223.96 99.7381 222.078 97.8535 219.757 97.8535C217.436 97.8535 215.555 99.7381 215.555 102.063C215.555 104.388 217.436 106.272 219.757 106.272Z" fill="#BAB9BE"/>
<path d="M219.757 106.272C222.078 106.272 223.96 104.388 223.96 102.063C223.96 99.7381 222.078 97.8535 219.757 97.8535C217.436 97.8535 215.555 99.7381 215.555 102.063C215.555 104.388 217.436 106.272 219.757 106.272Z" fill="#1B3A46"/>
<path d="M219.757 103.788C220.737 103.788 221.532 102.992 221.532 102.01C221.532 101.028 220.737 100.232 219.757 100.232C218.777 100.232 217.982 101.028 217.982 102.01C217.982 102.992 218.777 103.788 219.757 103.788Z" fill="#BAB9BE"/>
<path d="M215.381 116.307C215.883 116.307 216.291 115.898 216.291 115.395C216.291 114.892 215.883 114.483 215.381 114.483C214.878 114.483 214.471 114.892 214.471 115.395C214.471 115.898 214.878 116.307 215.381 116.307Z" fill="#BAB9BE"/>
<path d="M215.381 116.307C215.883 116.307 216.291 115.898 216.291 115.395C216.291 114.892 215.883 114.483 215.381 114.483C214.878 114.483 214.471 114.892 214.471 115.395C214.471 115.898 214.878 116.307 215.381 116.307Z" fill="#1B3A46"/>
<rect x="146" y="77" width="43" height="61" rx="7" fill="#708285"/>
<path d="M168.542 123.855C166.38 123.855 164.212 123.44 162.098 122.619C158.057 121.054 154.838 117.845 153.263 113.816C150.876 107.706 151.912 101.213 156.035 96.4453C157.379 94.8911 159.35 94 161.443 94H175.641C177.757 94 179.762 94.9298 181.141 96.5525C183.682 99.5425 185.084 103.355 185.084 107.289C185.082 116.423 177.662 123.855 168.542 123.855Z" fill="#B8BAB5"/>
<path d="M182.351 107.288C182.351 116.694 172.981 123.904 163.081 120.069C159.757 118.781 157.104 116.144 155.805 112.819C153.643 107.288 154.917 101.912 158.098 98.2362C158.936 97.2699 160.164 96.7344 161.443 96.7344H175.641C176.959 96.7344 178.208 97.3178 179.063 98.3251C181.113 100.739 182.351 103.868 182.351 107.288Z" fill="#1B3A46"/>
<path d="M160.724 110.302C162.375 110.302 163.714 108.961 163.714 107.307C163.714 105.653 162.375 104.312 160.724 104.312C159.073 104.312 157.734 105.653 157.734 107.307C157.734 108.961 159.073 110.302 160.724 110.302Z" stroke="#BAB9BB" stroke-width="0.7" stroke-miterlimit="10"/>
<path d="M164.499 103.986C165.394 103.986 166.119 103.26 166.119 102.364C166.119 101.468 165.394 100.741 164.499 100.741C163.604 100.741 162.879 101.468 162.879 102.364C162.879 103.26 163.604 103.986 164.499 103.986Z" stroke="#BAB9BB" stroke-width="0.7" stroke-miterlimit="10"/>
<path d="M172.357 103.986C173.252 103.986 173.977 103.26 173.977 102.364C173.977 101.468 173.252 100.741 172.357 100.741C171.463 100.741 170.737 101.468 170.737 102.364C170.737 103.26 171.463 103.986 172.357 103.986Z" stroke="#BAB9BB" stroke-width="0.7" stroke-miterlimit="10"/>
<path d="M164.576 116.985C166.227 116.985 167.566 115.645 167.566 113.991C167.566 112.337 166.227 110.996 164.576 110.996C162.925 110.996 161.586 112.337 161.586 113.991C161.586 115.645 162.925 116.985 164.576 116.985Z" stroke="#BAB9BB" stroke-width="0.7" stroke-miterlimit="10"/>
<path d="M172.281 116.985C173.932 116.985 175.271 115.645 175.271 113.991C175.271 112.337 173.932 110.996 172.281 110.996C170.63 110.996 169.291 112.337 169.291 113.991C169.291 115.645 170.63 116.985 172.281 116.985Z" stroke="#BAB9BB" stroke-width="0.7" stroke-miterlimit="10"/>
<path d="M168.428 110.302C170.08 110.302 171.418 108.961 171.418 107.307C171.418 105.653 170.08 104.312 168.428 104.312C166.777 104.312 165.438 105.653 165.438 107.307C165.438 108.961 166.777 110.302 168.428 110.302Z" stroke="#BAB9BB" stroke-width="0.7" stroke-miterlimit="10"/>
<path d="M176.132 110.302C177.784 110.302 179.122 108.961 179.122 107.307C179.122 105.653 177.784 104.312 176.132 104.312C174.481 104.312 173.143 105.653 173.143 107.307C173.143 108.961 174.481 110.302 176.132 110.302Z" stroke="#BAB9BB" stroke-width="0.7" stroke-miterlimit="10"/>
<rect x="86" y="77" width="43" height="61" rx="7" fill="#708285"/>
<path d="M107.742 121.525C114.779 121.525 120.484 115.811 120.484 108.762C120.484 101.714 114.779 96 107.742 96C100.705 96 95 101.714 95 108.762C95 115.811 100.705 121.525 107.742 121.525Z" fill="#B9B9BB"/>
<path d="M107.846 118.828C113.339 118.828 117.791 114.368 117.791 108.867C117.791 103.365 113.339 98.9053 107.846 98.9053C102.353 98.9053 97.9004 103.365 97.9004 108.867C97.9004 114.368 102.353 118.828 107.846 118.828Z" fill="#1B3A46"/>
<path d="M114.371 113.639C115.23 113.639 115.926 112.943 115.926 112.083C115.926 111.223 115.23 110.526 114.371 110.526C113.513 110.526 112.817 111.223 112.817 112.083C112.817 112.943 113.513 113.639 114.371 113.639Z" fill="#B9B9BB"/>
<path d="M114.383 112.776C114.741 112.776 115.031 112.485 115.031 112.126C115.031 111.767 114.741 111.477 114.383 111.477C114.025 111.477 113.734 111.767 113.734 112.126C113.734 112.485 114.025 112.776 114.383 112.776Z" fill="#1B3A46"/>
<path d="M101.319 113.639C102.177 113.639 102.873 112.943 102.873 112.083C102.873 111.223 102.177 110.526 101.319 110.526C100.46 110.526 99.7646 111.223 99.7646 112.083C99.7646 112.943 100.46 113.639 101.319 113.639Z" fill="#B9B9BB"/>
<path d="M101.329 112.776C101.687 112.776 101.978 112.485 101.978 112.126C101.978 111.767 101.687 111.477 101.329 111.477C100.971 111.477 100.681 111.767 100.681 112.126C100.681 112.485 100.971 112.776 101.329 112.776Z" fill="#1B3A46"/>
<path d="M103.184 108.036C104.614 108.036 105.773 106.874 105.773 105.442C105.773 104.01 104.614 102.849 103.184 102.849C101.754 102.849 100.595 104.01 100.595 105.442C100.595 106.874 101.754 108.036 103.184 108.036Z" fill="#B9B9BB"/>
<path d="M103.182 106.504C103.785 106.504 104.274 106.014 104.274 105.41C104.274 104.806 103.785 104.316 103.182 104.316C102.579 104.316 102.09 104.806 102.09 105.41C102.09 106.014 102.579 106.504 103.182 106.504Z" fill="#1B3A46"/>
<path d="M112.713 108.036C114.143 108.036 115.303 106.874 115.303 105.442C115.303 104.01 114.143 102.849 112.713 102.849C111.283 102.849 110.124 104.01 110.124 105.442C110.124 106.874 111.283 108.036 112.713 108.036Z" fill="#B9B9BB"/>
<path d="M112.713 106.504C113.316 106.504 113.805 106.014 113.805 105.41C113.805 104.806 113.316 104.316 112.713 104.316C112.11 104.316 111.621 104.806 111.621 105.41C111.621 106.014 112.11 106.504 112.713 106.504Z" fill="#1B3A46"/>
<path d="M107.742 117.374C109.172 117.374 110.331 116.213 110.331 114.781C110.331 113.349 109.172 112.188 107.742 112.188C106.312 112.188 105.152 113.349 105.152 114.781C105.152 116.213 106.312 117.374 107.742 117.374Z" fill="#B9B9BB"/>
<path d="M107.742 115.843C108.345 115.843 108.834 115.353 108.834 114.749C108.834 114.145 108.345 113.655 107.742 113.655C107.138 113.655 106.649 114.145 106.649 114.749C106.649 115.353 107.138 115.843 107.742 115.843Z" fill="#1B3A46"/>
<rect x="27" y="78" width="41" height="59" rx="6" fill="#133C43" stroke="#3AE3C5" stroke-width="2"/>
<path d="M37.9688 115.495L37.9685 115.494C35.356 112.844 33.9505 109.359 34.0013 105.674L34.0013 105.674C34.031 103.494 34.5852 101.33 35.6003 99.4178L35.6004 99.4176C36.3916 97.9262 37.931 97 39.6227 97H55.8277C57.5188 97 59.0555 97.9233 59.8436 99.4049L59.8436 99.405C60.8925 101.377 61.4489 103.611 61.4489 105.863C61.4489 113.195 55.7278 119.224 48.4255 119.594L48.4205 119.594C48.1935 119.607 47.964 119.613 47.7343 119.613C44.0533 119.613 40.5888 118.155 37.9688 115.495Z" fill="#133C43" stroke="#3AE3C5" stroke-width="2"/>
<path d="M59.6365 105.863C59.6365 112.246 54.6307 117.461 48.3348 117.778C41.5088 118.124 35.7203 112.54 35.8136 105.697C35.8409 103.737 36.3392 101.893 37.1993 100.27C37.6748 99.3748 38.6077 98.8164 39.6225 98.8164H55.8275C56.8378 98.8164 57.7684 99.3679 58.2439 100.261C59.1336 101.932 59.6365 103.839 59.6365 105.863Z" fill="#1B3A46"/>
<path d="M40.0845 109.111C41.7358 109.111 43.0743 107.771 43.0743 106.117C43.0743 104.463 41.7358 103.122 40.0845 103.122C38.4333 103.122 37.0947 104.463 37.0947 106.117C37.0947 107.771 38.4333 109.111 40.0845 109.111Z" fill="#B9B9BB"/>
<path d="M40.0851 107.342C40.7825 107.342 41.3479 106.776 41.3479 106.077C41.3479 105.379 40.7825 104.812 40.0851 104.812C39.3876 104.812 38.8223 105.379 38.8223 106.077C38.8223 106.776 39.3876 107.342 40.0851 107.342Z" fill="#1B3A46"/>
<path d="M43.8593 103.252C44.754 103.252 45.4793 102.526 45.4793 101.629C45.4793 100.733 44.754 100.007 43.8593 100.007C42.9646 100.007 42.2393 100.733 42.2393 101.629C42.2393 102.526 42.9646 103.252 43.8593 103.252Z" fill="#B9B9BB"/>
<path d="M43.8773 102.515C44.3661 102.515 44.7624 102.118 44.7624 101.629C44.7624 101.139 44.3661 100.742 43.8773 100.742C43.3885 100.742 42.9922 101.139 42.9922 101.629C42.9922 102.118 43.3885 102.515 43.8773 102.515Z" fill="#1B3A46"/>
<path d="M51.7187 103.252C52.6134 103.252 53.3387 102.526 53.3387 101.629C53.3387 100.733 52.6134 100.007 51.7187 100.007C50.824 100.007 50.0986 100.733 50.0986 101.629C50.0986 102.526 50.824 103.252 51.7187 103.252Z" fill="#B9B9BB"/>
<path d="M51.7386 102.515C52.2275 102.515 52.6237 102.118 52.6237 101.629C52.6237 101.139 52.2275 100.742 51.7386 100.742C51.2498 100.742 50.8535 101.139 50.8535 101.629C50.8535 102.118 51.2498 102.515 51.7386 102.515Z" fill="#1B3A46"/>
<path d="M43.9371 115.111C45.5883 115.111 46.9269 113.771 46.9269 112.117C46.9269 110.463 45.5883 109.122 43.9371 109.122C42.2858 109.122 40.9473 110.463 40.9473 112.117C40.9473 113.771 42.2858 115.111 43.9371 115.111Z" fill="#B9B9BB"/>
<path d="M43.9366 113.345C44.6341 113.345 45.1995 112.779 45.1995 112.08C45.1995 111.382 44.6341 110.815 43.9366 110.815C43.2392 110.815 42.6738 111.382 42.6738 112.08C42.6738 112.779 43.2392 113.345 43.9366 113.345Z" fill="#1B3A46"/>
<path d="M51.6412 115.111C53.2924 115.111 54.631 113.771 54.631 112.117C54.631 110.463 53.2924 109.122 51.6412 109.122C49.9899 109.122 48.6514 110.463 48.6514 112.117C48.6514 113.771 49.9899 115.111 51.6412 115.111Z" fill="#B9B9BB"/>
<path d="M51.6388 113.345C52.3362 113.345 52.9016 112.779 52.9016 112.08C52.9016 111.382 52.3362 110.815 51.6388 110.815C50.9414 110.815 50.376 111.382 50.376 112.08C50.376 112.779 50.9414 113.345 51.6388 113.345Z" fill="#1B3A46"/>
<path d="M47.7886 109.111C49.4399 109.111 50.7784 107.771 50.7784 106.117C50.7784 104.463 49.4399 103.122 47.7886 103.122C46.1374 103.122 44.7988 104.463 44.7988 106.117C44.7988 107.771 46.1374 109.111 47.7886 109.111Z" fill="#B9B9BB"/>
<path d="M47.7892 107.342C48.4866 107.342 49.052 106.776 49.052 106.077C49.052 105.379 48.4866 104.812 47.7892 104.812C47.0917 104.812 46.5264 105.379 46.5264 106.077C46.5264 106.776 47.0917 107.342 47.7892 107.342Z" fill="#1B3A46"/>
<path d="M55.4937 109.111C57.1449 109.111 58.4835 107.771 58.4835 106.117C58.4835 104.463 57.1449 103.122 55.4937 103.122C53.8425 103.122 52.5039 104.463 52.5039 106.117C52.5039 107.771 53.8425 109.111 55.4937 109.111Z" fill="#B9B9BB"/>
<path d="M55.4913 107.342C56.1888 107.342 56.7542 106.776 56.7542 106.077C56.7542 105.379 56.1888 104.812 55.4913 104.812C54.7939 104.812 54.2285 105.379 54.2285 106.077C54.2285 106.776 54.7939 107.342 55.4913 107.342Z" fill="#1B3A46"/>
</svg>
