<svg width="7" height="10" viewBox="0 0 7 10" fill="none" xmlns="http://www.w3.org/2000/svg">
<path fill-rule="evenodd" clip-rule="evenodd" d="M7.809e-08 9.68728V1.24997C7.809e-08 0.918458 0.122916 0.600523 0.341709 0.366108C0.560501 0.131693 0.857248 0 1.16667 0L5.83333 0C6.14275 0 6.4395 0.131693 6.65829 0.366108C6.87708 0.600523 7 0.918458 7 1.24997V9.68728C7.00004 9.74154 6.98688 9.79488 6.96184 9.84205C6.93679 9.88921 6.90071 9.92858 6.85715 9.95626C6.81359 9.98395 6.76405 9.99901 6.71341 9.99995C6.66276 10.0009 6.61277 9.98769 6.56833 9.96165L3.5 8.16794L0.431667 9.96165C0.387234 9.98769 0.337236 10.0009 0.286595 9.99995C0.235953 9.99901 0.186414 9.98395 0.142854 9.95626C0.099293 9.92858 0.0632127 9.88921 0.0381643 9.84205C0.013116 9.79488 -3.69797e-05 9.74154 7.809e-08 9.68728ZM3.59333 2.56244C3.58481 2.5437 3.57153 2.5279 3.55503 2.51685C3.53853 2.5058 3.51946 2.49994 3.5 2.49994C3.48054 2.49994 3.46147 2.5058 3.44497 2.51685C3.42847 2.5279 3.41519 2.5437 3.40667 2.56244L3.03683 3.36555C3.02943 3.38179 3.01844 3.39586 3.00482 3.40653C2.9912 3.41721 2.97536 3.42416 2.95867 3.4268L2.13033 3.55554C2.11126 3.55864 2.09338 3.56737 2.07868 3.58075C2.06398 3.59413 2.05305 3.61164 2.04712 3.6313C2.04118 3.65096 2.04047 3.672 2.04508 3.69207C2.04968 3.71214 2.0594 3.73044 2.07317 3.74491L2.67167 4.37052C2.69617 4.39615 2.70725 4.43302 2.70142 4.46927L2.56083 5.353C2.55766 5.37341 2.55987 5.39436 2.56719 5.4135C2.57452 5.43264 2.58669 5.44921 2.60232 5.46135C2.61795 5.47349 2.63644 5.48072 2.65569 5.48222C2.67495 5.48373 2.69422 5.47945 2.71133 5.46987L3.45217 5.05238C3.46702 5.04406 3.48353 5.03971 3.50029 5.03971C3.51705 5.03971 3.53356 5.04406 3.54842 5.05238L4.28925 5.46987C4.30635 5.47928 4.32554 5.48342 4.3447 5.48183C4.36387 5.48024 4.38224 5.47299 4.39778 5.46087C4.41332 5.44876 4.42542 5.43226 4.43272 5.41321C4.44003 5.39417 4.44226 5.37332 4.43917 5.353L4.298 4.46865C4.29502 4.45089 4.29612 4.43262 4.3012 4.41542C4.30628 4.39821 4.3152 4.38259 4.32717 4.3699L4.92683 3.74429C4.9406 3.72981 4.95032 3.71151 4.95492 3.69145C4.95953 3.67138 4.95882 3.65033 4.95288 3.63067C4.94695 3.61101 4.93602 3.59351 4.92132 3.58013C4.90662 3.56675 4.88874 3.55802 4.86967 3.55492L4.04133 3.42617C4.02464 3.42354 4.0088 3.41658 3.99518 3.40591C3.98156 3.39524 3.97057 3.38117 3.96317 3.36492L3.59333 2.56244Z" fill="#B8B8B8"/>
</svg>
