<svg width="17" height="17" viewBox="0 0 17 17" fill="none" xmlns="http://www.w3.org/2000/svg">
<path d="M6.78731 0.507463V2.79104L5.64552 3.36194L3.93284 1.64925L1.64925 3.93284L3.36194 5.64552L2.79104 6.78731H0.507463V10.2127H2.79104L3.36194 11.3545L1.64925 13.0672L3.93284 15.3507L5.64552 13.6381L6.78731 14.209V16.4925H10.2127V14.209L11.3545 13.6381L13.0672 15.3507L15.3507 13.0672L13.6381 11.3545L14.209 10.2127H16.4925V6.78731H14.209L13.6381 5.64552L15.3507 3.93284L13.0672 1.64925L11.3545 3.36194L10.2127 2.79104V0.507463H6.78731Z" stroke="#FFCE31" stroke-linecap="round" stroke-linejoin="round"/>
<path d="M8.5 10.7836C9.76119 10.7836 10.7836 9.76119 10.7836 8.5C10.7836 7.23881 9.76119 6.21642 8.5 6.21642C7.23881 6.21642 6.21642 7.23881 6.21642 8.5C6.21642 9.76119 7.23881 10.7836 8.5 10.7836Z" stroke="#FFCE31" stroke-linecap="round" stroke-linejoin="round"/>
</svg>
