<svg width="16" height="20" viewBox="0 0 16 20" fill="none" xmlns="http://www.w3.org/2000/svg">
<path d="M1.03768 9.98929L5.0161 6.01087M1.03768 9.98929L5.0161 13.9677M1.03768 9.98929H10.9837M6.01071 18.9407C7.18623 18.9407 8.35024 18.7092 9.43628 18.2594C10.5223 17.8095 11.5091 17.1501 12.3403 16.3189C13.1716 15.4877 13.8309 14.5009 14.2808 13.4149C14.7306 12.3288 14.9622 11.1648 14.9622 9.98929C14.9622 8.81377 14.7306 7.64976 14.2808 6.56372C13.8309 5.47769 13.1716 4.49088 12.3403 3.65967C11.5091 2.82845 10.5223 2.16909 9.43628 1.71924C8.35024 1.26938 7.18623 1.03785 6.01071 1.03785" stroke="#FFCE31" stroke-width="2" stroke-linecap="round" stroke-linejoin="round"/>
</svg>
