<svg width="20" height="20" viewBox="0 0 20 20" fill="none" xmlns="http://www.w3.org/2000/svg">
<path d="M4.375 2.5C4.20924 2.5 4.05027 2.56585 3.93306 2.68306C3.81585 2.80027 3.75 2.95924 3.75 3.125V9.375C3.75 9.54076 3.81585 9.69973 3.93306 9.81694C4.05027 9.93415 4.20924 10 4.375 10H10.625C10.7908 10 10.9497 9.93415 11.0669 9.81694C11.1842 9.69973 11.25 9.54076 11.25 9.375V3.125C11.25 2.95924 11.1842 2.80027 11.0669 2.68306C10.9497 2.56585 10.7908 2.5 10.625 2.5H4.375ZM7.03875 15.575H5.175V14.4588H6.92875V13.8275H5.175V12.7587H7.0375V12.0837H4.35625V16.25H7.03875V15.575ZM8.68375 16.25H9.67625L11.0588 12.0837H10.1425L9.2175 15.3525H9.17875L8.245 12.0837H7.29L8.68375 16.25Z" fill="#E4E4E4"/>
<path d="M3.75 0C3.08696 0 2.45107 0.263392 1.98223 0.732233C1.51339 1.20107 1.25 1.83696 1.25 2.5V18.75H0.625C0.45924 18.75 0.300269 18.8158 0.183058 18.9331C0.065848 19.0503 0 19.2092 0 19.375C0 19.5408 0.065848 19.6997 0.183058 19.8169C0.300269 19.9342 0.45924 20 0.625 20H14.375C14.5408 20 14.6997 19.9342 14.8169 19.8169C14.9342 19.6997 15 19.5408 15 19.375C15 19.2092 14.9342 19.0503 14.8169 18.9331C14.6997 18.8158 14.5408 18.75 14.375 18.75H13.75V13.75C14.0815 13.75 14.3995 13.8817 14.6339 14.1161C14.8683 14.3505 15 14.6685 15 15V15.625C15 16.1223 15.1975 16.5992 15.5492 16.9508C15.9008 17.3025 16.3777 17.5 16.875 17.5C17.3723 17.5 17.8492 17.3025 18.2008 16.9508C18.5525 16.5992 18.75 16.1223 18.75 15.625V5C18.7501 4.91787 18.7341 4.83651 18.7028 4.76059C18.6715 4.68466 18.6255 4.61565 18.5675 4.5575L17.9425 3.9325C17.8253 3.81533 17.6664 3.74951 17.5006 3.74951C17.3349 3.74951 17.176 3.81533 17.0588 3.9325L16.4338 4.5575C16.3755 4.61555 16.3293 4.68451 16.2978 4.76044C16.2663 4.83637 16.25 4.91778 16.25 5V8.75C16.25 9.6375 16.725 10.12 17.045 10.4463L17.0537 10.4562C17.37 10.7787 17.5 10.9275 17.5 11.25V15.625C17.5 15.7908 17.4342 15.9497 17.3169 16.0669C17.1997 16.1842 17.0408 16.25 16.875 16.25C16.7092 16.25 16.5503 16.1842 16.4331 16.0669C16.3158 15.9497 16.25 15.7908 16.25 15.625V15C16.25 14.337 15.9866 13.7011 15.5178 13.2322C15.0489 12.7634 14.413 12.5 13.75 12.5V2.5C13.75 1.83696 13.4866 1.20107 13.0178 0.732233C12.5489 0.263392 11.913 0 11.25 0L3.75 0ZM12.5 2.5V18.75H2.5V2.5C2.5 2.16848 2.6317 1.85054 2.86612 1.61612C3.10054 1.3817 3.41848 1.25 3.75 1.25H11.25C11.5815 1.25 11.8995 1.3817 12.1339 1.61612C12.3683 1.85054 12.5 2.16848 12.5 2.5Z" fill="#E4E4E4"/>
</svg>
